<?xml version="1.0" encoding="utf-8"?>
<!-- Generator: Adobe Illustrator 23.1.0, SVG Export Plug-In . SVG Version: 6.00 Build 0)  -->
<svg version="1.1" id="Layer_1" xmlns="http://www.w3.org/2000/svg" xmlns:xlink="http://www.w3.org/1999/xlink" x="0px" y="0px"
	 viewBox="0 0 380.6 300" style="enable-background:new 0 0 380.6 300;" xml:space="preserve">
	  	 <script  id="script4044" xlink:href="https://cdnjs.cloudflare.com/ajax/libs/snap.svg/0.4.1/snap.svg.js"></script>
<style type="text/css">
	.st0{fill:#FFFFFF;stroke:#010101;stroke-width:2.4;stroke-miterlimit:3;}
	.st1{display:none;}
	.st2{display:inline;fill:#FFFFFF;stroke:#000000;stroke-width:2;stroke-miterlimit:1.137;}
	.st3{display:inline;}
	.st4{fill:#FFFFFF;stroke:#000000;stroke-width:2;stroke-miterlimit:1.137;}
	.st5{opacity:0.99;fill:#FFFFFF;stroke:#000000;stroke-width:4;stroke-miterlimit:3;enable-background:new    ;}
	.st6{fill:#FFFFFF;stroke:#010101;stroke-width:2.4002;stroke-miterlimit:3.0002;}
	.st7{fill:#FFFFFF;stroke:#020202;stroke-width:2.4;stroke-miterlimit:3;}
	.st8{fill:#FFFFFF;stroke:#020202;stroke-width:2.1;stroke-miterlimit:3;}
	.st9{fill:#010101;stroke:#020202;stroke-width:1.4996;stroke-miterlimit:2.9996;}
	.st10{fill:#010101;stroke:#020202;stroke-width:1.5;stroke-miterlimit:3;}
	.st11{fill:none;stroke:#010101;stroke-width:1.2;stroke-miterlimit:3;}
	.st12{fill:#010101;stroke:#020202;stroke-width:0.25;stroke-miterlimit:3;}
	.st13{fill:none;stroke:#020202;stroke-width:0.9;stroke-miterlimit:3;}
	.st14{fill:none;stroke:#020202;stroke-width:0.9;stroke-miterlimit:2.9996;}
	.st15{fill:none;stroke:#020202;stroke-width:1.8;stroke-miterlimit:3;}
	.st16{fill:none;stroke:#020202;stroke-width:0.6;stroke-miterlimit:3;}
	.st17{fill:#FFFFFF;stroke:#020202;stroke-width:1.5;stroke-miterlimit:3;}
	.st18{fill:#FFFFFF;stroke:#020202;stroke-width:1.8;stroke-miterlimit:3;}
	.st19{fill:none;stroke:#020202;stroke-width:1.2;stroke-miterlimit:3;}
	.st20{fill:#FFFFFF;stroke:#020202;stroke-width:1.2;stroke-miterlimit:3;}
	.st21{fill:#FFFFFF;}
	.st22{fill:#FFFFFF;stroke:#020202;stroke-width:0.75;stroke-miterlimit:3;}
	.st23{display:inline;fill:#FFFFFF;stroke:#020202;stroke-width:2.4;stroke-miterlimit:3;}
	.st24{display:inline;fill:none;stroke:#010101;stroke-width:0.6;stroke-miterlimit:3;}
	.st25{fill:none;stroke:#010101;stroke-width:0.6;stroke-miterlimit:3;}
	.st26{fill:#FFFFFF;stroke:#020202;stroke-width:0.75;stroke-miterlimit:2.9999;}
	.st27{fill:#FFFFFF;stroke:#000000;stroke-width:4;stroke-miterlimit:1.137;}
	.st28{display:none;fill:#FFFFFF;stroke:#000000;stroke-width:2;stroke-miterlimit:1.137;}
	.st29{fill:none;stroke:#020202;stroke-width:3;stroke-miterlimit:3;}
	.st30{fill:#FFFFFF;stroke:#020202;stroke-width:2;stroke-miterlimit:3;}
	.st31{stroke:#020202;stroke-miterlimit:3;}
	.st32{fill:#FFFFFF;stroke:#020202;stroke-width:3;stroke-miterlimit:3;}
	.st33{fill:none;stroke:#020202;stroke-width:2;stroke-miterlimit:3;}
	.st34{fill:none;stroke:#020202;stroke-width:0.5;stroke-miterlimit:3;}
	.st35{fill:none;stroke:#000000;stroke-width:4;stroke-miterlimit:10;}
	.st36{fill:none;stroke:#010101;stroke-width:5;stroke-miterlimit:3;}
	.st37{fill:none;stroke:#010101;stroke-width:2;stroke-miterlimit:10;}
	.st38{fill:none;stroke:#010101;stroke-width:3;stroke-miterlimit:10;}
	.st39{stroke:#020202;stroke-width:2;stroke-miterlimit:10;}
	.st40{stroke:#020202;stroke-width:4;stroke-miterlimit:10;}
	.st41{fill:none;stroke:#020202;stroke-width:3;stroke-miterlimit:10;}
	.st42{fill:none;stroke:#020202;stroke-width:2;stroke-miterlimit:10;}
	.st43{display:inline;fill:none;stroke:#020202;stroke-width:2;stroke-miterlimit:3;}
	.st44{fill:none;stroke:#000000;stroke-width:2;stroke-miterlimit:1.137;}
	.st45{display:inline;fill:#FFFFFF;stroke:#010101;stroke-width:3;stroke-miterlimit:10;}
	.st46{display:none;fill:none;stroke:#020202;stroke-miterlimit:3;}
	.st47{display:none;fill:none;stroke:#020202;stroke-width:2;stroke-miterlimit:3;}
	.st48{fill:#FFFFFF;stroke:#010101;stroke-width:3;stroke-miterlimit:10;}
	.st49{font-family:'HighJinks';}
	.st50{font-size:96.1706px;}
	.st51{enable-background:new    ;}
	.st52{font-family:'Arial-Black';}
	.st53{font-size:5px;}
	.st54{fill:none;stroke:#020202;stroke-miterlimit:3;}
	.st55{fill:none;stroke:#000000;stroke-width:4;stroke-miterlimit:3;}
	.st56{stroke:#000000;stroke-width:3.9999;stroke-miterlimit:2.9999;}
	.st57{display:none;fill:#FFFFFF;stroke:#010101;stroke-width:2;stroke-miterlimit:10;}
	.st58{display:inline;fill:#FFFFFF;}
	.st59{display:inline;fill:none;stroke:#010101;stroke-width:2;stroke-miterlimit:10;}
	.st60{fill:none;stroke:#020202;stroke-width:2.9999;stroke-miterlimit:2.9999;}
	.st61{fill:#FFFFFF;stroke:#020202;stroke-width:3;stroke-miterlimit:10;}
		 #SRING{
		 stroke-dasharray:2200;
		 stroke-dashoffset:0;
		 -webkit-animation:fade 3s infinite linear forwards;
		 }
		 #SRING {
	opacity: 1;
	animation-name: fadeInOpacity;
	animation-iteration-count: infinite;
	animation-timing-function: ease-in;
	animation-duration: 1.5s;
}
		 #SRING_1_ {
	opacity: 1;
	animation-name: fadeInOpacity;
	animation-iteration-count: infinite;
	animation-timing-function: ease-in;
	animation-duration: 1.5s;
}


@keyframes fadeInOpacity {
	0% {
		opacity: 0;
	}
	100% {
		opacity: 1;
	}
}
		  #vecmaprec{
		 stroke-dasharray:2200;
		 stroke-dashoffset:0;
		 -webkit-animation:dash 3s infinite linear forwards;
		 }
		 @-webkit-keyframes dash{

		 from{
		 stroke-dashoffset:2200;
		 }
		 to{
		 stroke-dashoffset:0;
		 }
		 }
	 #r1{
		 stroke-dasharray:2200;
		 stroke-dashoffset:0;
		 -webkit-animation:dash 3s infinite linear forwards;
		 }
		  #vecmaprec{
		 stroke-dasharray:2200;
		 stroke-dashoffset:0;
		 -webkit-animation:dash 3s infinite linear forwards;
		 }
		 @-webkit-keyframes dash{

		 from{
		 stroke-dashoffset:2200;
		 }
		 to{
		 stroke-dashoffset:0;
		 }
		 }
		 	 #r2{
		 stroke-dasharray:2200;
		 stroke-dashoffset:0;
		 -webkit-animation:dash 6s infinite linear forwards;
		 }
		  #vecmaprec{
		 stroke-dasharray:2200;
		 stroke-dashoffset:0;
		 -webkit-animation:dash 6s infinite linear forwards;
		 }
		 @-webkit-keyframes dash{

		 from{
		 stroke-dashoffset:2200;
		 }
		 to{
		 stroke-dashoffset:0;
		 }
		 }
		 	 #r3{
		 stroke-dasharray:2200;
		 stroke-dashoffset:0;
		 -webkit-animation:dash 6s infinite linear forwards;
		 }
		  #vecmaprec{
		 stroke-dasharray:2200;
		 stroke-dashoffset:0;
		 -webkit-animation:dash 3s infinite linear forwards;
		 }
		 @-webkit-keyframes dash{

		 from{
		 stroke-dashoffset:2200;
		 }
		 to{
		 stroke-dashoffset:0;
		 }
		 }
</style>
<script  id="script4044"></script>
<g>
	<g>
		<script  id="script4044"></script>
		<ellipse id="rfoot" class="st0" cx="181.8" cy="137.1" rx="13.5" ry="9.4"/>
		<g id="mountains" class="st1">
			<path class="st2" d="M195.9,86.3l16.3-42.5c0,0,8.1-16.2,16.3,0l18.8,42.5H195.9z"/>
			<path class="st2" d="M176.7,102.3L193,63.4c0,0,8.1-14.8,16.3,0l18.8,38.9H176.7z"/>
			<path class="st2" d="M215.5,102.3l16.3-38.9c0,0,8.1-14.8,16.3,0l18.8,38.9H215.5z"/>
			<g class="st3">
				<path class="st4" d="M210.1,48.5l2.8,2.9c1.3,1.4,3.4,1.3,4.6,0l1.2-1.3c1.3-1.4,3.4-1.4,4.7,0l1.3,1.4c1.3,1.4,3.1,1.2,4.1-0.3
					c1-1.6,1.8-2.8,1.8-2.8"/>
			</g>
			<g class="st3">
				<path class="st4" d="M190.4,68.6l2.8,2.9c1.3,1.4,3.4,1.3,4.6,0l1.2-1.3c1.3-1.4,3.4-1.4,4.7,0l1.3,1.4c1.3,1.4,3.1,1.2,4.1-0.3
					s1.8-2.8,1.8-2.8"/>
			</g>
			<g class="st3">
				<path class="st4" d="M230.6,67.7L235,73c1.2,1.4,3.1,1.4,4.1-0.1l1.7-2.4c1.1-1.5,2.9-1.5,3.9,0l2.6,3.6
					c1.1,1.5,2.4,1.4,2.9-0.2c0.5-1.7,0.9-3,0.9-3"/>
			</g>
		</g>
		<path class="st5" d="M166.7,39c0,0,53.3,62.1-34.2,80.6"/>
		<g id="Foosha">
			<g id="fFoosha">
				
					<ellipse id="lfoot" transform="matrix(0.161 -0.987 0.987 0.161 17.2203 294.5307)" class="st6" cx="181.8" cy="137.1" rx="9.4" ry="13.5"/>
				<path class="st7" d="M221.7,128.8c0,0,28.2-7.2,22-26.1c0,0-10.2-12.6-12.6-9.9c0,0-3-4.8,0.9-7.8c0,0-10.6,6-7.2,9.2
					c0,0,14.3,17.6,1.7,14.5"/>
				<ellipse class="st0" cx="199.9" cy="112.8" rx="25.9" ry="25.4"/>
				<ellipse class="st8" cx="195.3" cy="116.4" rx="17.2" ry="15.7"/>
				<circle class="st0" cx="196.4" cy="81" r="29.5"/>
				
					<ellipse id="eli2" transform="matrix(8.551286e-02 -0.9963 0.9963 8.551286e-02 88.6039 248.4041)" class="st9" cx="179.6" cy="75.9" rx="4.7" ry="2"/>
				<ellipse id="eli" class="st10" cx="199.6" cy="75.9" rx="3.3" ry="5.1"/>
				<path class="st11" d="M179.5,110.5c0,0,15,7.2,32,0.8"/>
				<ellipse class="st12" cx="231.8" cy="85.3" rx="1.1" ry="1.2"/>
				<path class="st13" d="M236.1,117.9c-1.1-0.6-1.1-2.8-0.2-4.9c0.9-2.1,2.7-3.3,3.7-2.7c1.1,0.6,1.1,2.8,0.2,4.9
					C238.9,117.2,237.2,118.5,236.1,117.9z"/>
				
					<ellipse transform="matrix(0.116 -0.9932 0.9932 0.116 94.1015 330.0979)" class="st14" cx="232.5" cy="112.2" rx="2.3" ry="1.8"/>
				
					<ellipse transform="matrix(0.1163 -0.9932 0.9932 0.1163 100.7216 329.3079)" class="st13" cx="235.4" cy="108.1" rx="1.3" ry="1.5"/>
				<g>
					<path class="st15" d="M179.5,91.9c-1.8-2.6-0.6-4.7,2.5-4.7h10.1c3.1,0,4.3,2.1,2.5,4.7l-4.4,6.5c-1.8,2.6-4.6,2.6-6.4,0
						L179.5,91.9z"/>
				</g>
				<g>
					<path class="st16" d="M182.7,87.4c-0.7,0-0.9,0.9-0.6,2c0.3,1.1,0.9,1.1,1.2,0S183.4,87.4,182.7,87.4z"/>
				</g>
				<path class="st17" d="M208.4,61l7.5,5.7c4.9-4.6-1.9-13.2-1.9-13.2C213.6,61.9,208.4,61,208.4,61z"/>
				<path class="st18" d="M174.1,51.2c0,0-5.8,7.3-1.6,11.2l6.4-4.8C178.9,57.5,174.5,58.3,174.1,51.2z"/>
				<path class="st19" d="M193.6,122.6c-1.2,1.2-3.6,1.6-5.5,0.9c-1.5-0.6-2-1.9-1-2.9c0.8-0.8,2.3-1,3.5-0.5c1,0.4,1.3,1.2,0.7,1.9
					c-0.5,0.5-1.5,0.7-2.3,0.4c-0.6-0.3-0.8-0.8-0.4-1.2c0.3-0.3,1-0.4,1.5-0.2c0.4,0.2,0.5,0.5,0.3,0.8c-0.2,0.2-0.6,0.3-0.9,0.1
					c-0.3-0.1-0.3-0.3-0.2-0.5"/>
				<path class="st20" d="M182.7,96.4c1.7-4.3,8.7,0.4,8.7,0.4C186.5,104.5,182.7,96.4,182.7,96.4z"/>
				<path class="st20" d="M181,124.4c0,0,8.1,4.8,27.1,2.5"/>
				<g id="PAWHAND">
					<circle class="st7" cx="202.8" cy="107.1" r="9.7"/>
					<g>
						<path class="st21" d="M200.5,112.1c-2.1-1.6-1.8-3.5,0.7-4.2l3.2-0.9c2.5-0.7,3.7,0.6,2.5,3l-0.4,0.8c-1.1,2.4-3.8,3-5.9,1.5
							L200.5,112.1z"/>
						<path class="st19" d="M200.5,112.1c-2.1-1.6-1.8-3.5,0.7-4.2l3.2-0.9c2.5-0.7,3.7,0.6,2.5,3l-0.4,0.8c-1.1,2.4-3.8,3-5.9,1.5
							L200.5,112.1z"/>
					</g>
					<circle class="st22" cx="196.9" cy="105.9" r="1.4"/>
					<circle class="st22" cx="201.4" cy="102.3" r="1.4"/>
					<circle class="st22" cx="206.3" cy="103.6" r="1.4"/>
				</g>
				<path class="st20" d="M193.6,121.4c0,0,7.7,1.3,17.7-1.4"/>
				<path class="st20" d="M178.9,117.9c0,0,1.7,2.2,6.7,2.1"/>
				<path class="st17" d="M183.9,68.6c0,0-6.9-11.2-8.9,0"/>
				<path class="st17" d="M194.8,68.6c0,0,6.9-11.2,8.9,0"/>
				<g id="CLAWHAND" class="st1">
					<circle class="st23" cx="168.3" cy="107.1" r="9.7"/>
					<g class="st3">
						<path class="st21" d="M164.8,111.4c-1.8-1.9-1.2-3.7,1.4-4l3.3-0.4c2.6-0.3,3.5,1.2,2,3.4l-0.5,0.7c-1.5,2.2-4.3,2.4-6.1,0.5
							L164.8,111.4z"/>
						<path class="st19" d="M164.8,111.4c-1.8-1.9-1.2-3.7,1.4-4l3.3-0.4c2.6-0.3,3.5,1.2,2,3.4l-0.5,0.7c-1.5,2.2-4.3,2.4-6.1,0.5
							L164.8,111.4z"/>
					</g>
					<path class="st24" d="M160.9,104.5l0.5,2.7c0,0,0.9-2,2.2-1.5"/>
					<path class="st24" d="M170.5,103.9l0.5,2.7c0,0,0.9-2,2.2-1.5"/>
					<path class="st24" d="M166,101.8l0.5,2.7c0,0,0.9-2,2.2-1.5"/>
				</g>
				<path class="st25" d="M214,123c0,0,3.4,2.2,2.2-1.2"/>
				<path class="st25" d="M217,122.1c0,0,3.4,2.2,2.2-1.2"/>
				<path class="st25" d="M216.7,124.2c0,0,3.4,2.2,2.2-1.2"/>
				<g id="PAWHAND_1_">
					<circle class="st7" cx="170.3" cy="107" r="9.7"/>
					<g>
						<path class="st21" d="M166.7,111.2c-1.6-2.1-0.7-3.9,1.9-3.8h3.3c2.6,0,3.4,1.6,1.6,3.6l-0.6,0.7c-1.7,2-4.5,1.8-6.1-0.2
							L166.7,111.2z"/>
						<path class="st19" d="M166.7,111.2c-1.6-2.1-0.7-3.9,1.9-3.8h3.3c2.6,0,3.4,1.6,1.6,3.6l-0.6,0.7c-1.7,2-4.5,1.8-6.1-0.2
							L166.7,111.2z"/>
					</g>
					<ellipse class="st26" cx="165" cy="104.2" rx="1.4" ry="1.4"/>
					<ellipse class="st26" cx="170.3" cy="102.1" rx="1.4" ry="1.4"/>
					<circle class="st22" cx="174.7" cy="104.7" r="1.4"/>
				</g>
			</g>
		</g>
		<g id="mountains_1_">
			<path class="st27" d="M344.7,90.2l33.5,57.1H275.8l28.7-56.5"/>
			<path class="st28" d="M237.4,171.5l32.5-58.4c0,0,16.2-22.2,32.5,0l37.5,58.4H237.4z"/>
			<g class="st1">
				<path class="st2" d="M303.9,90.6l5.6,4.4c2.6,2.1,6.7,2,9.2-0.1L321,93c2.5-2.1,6.7-2.1,9.3-0.1L333,95c2.6,2.1,6.2,1.8,8.1-0.5
					c1.9-2.4,3.5-4.3,3.5-4.3"/>
			</g>
			<g class="st1">
				<path class="st2" d="M264.7,120.8l5.6,4.4c2.6,2.1,6.7,2,9.2-0.1l2.3-1.9c2.5-2.1,6.7-2.1,9.3-0.1l2.7,2.1
					c2.6,2.1,6.2,1.8,8.1-0.5s3.5-4.3,3.5-4.3"/>
			</g>
			<ellipse class="st29" cx="325.2" cy="90.2" rx="20.5" ry="4.8"/>
			<path class="st30" d="M314.1,94c-0.1,0.2-0.2,0.4-0.4,0.6c0,0,6.3-2.4,7.8,0.9"/>
			<ellipse class="st31" cx="324.4" cy="90.2" rx="20.7" ry="5.8"/>
			<path class="st32" d="M321.5,95.5c0.2,0.5,0.4,1.1,0.4,1.8c0,5.8-11.3,54.9-28.2,50.3l34-1c0,0,23.9,10.9,11.5-53
				c0,0-16.8-12.6-25.2,0.4"/>
			<g>
				<circle class="st33" cx="335.8" cy="59.8" r="5.2"/>
				<circle class="st33" cx="341.8" cy="69.3" r="3.4"/>
				<circle class="st33" cx="335.4" cy="78.9" r="2.3"/>
				<path class="st34" d="M333.5,56.5l0.6,0.6c0,0-1.8,1.6-1.8,2.3C332.4,60,332,58.1,333.5,56.5z"/>
				<path class="st34" d="M334,57.9l0.4,0.4c0,0-1.1,0.9-1,1.3C333.4,59.9,333.1,58.8,334,57.9z"/>
				<g>
					<line class="st33" x1="325.1" y1="66.7" x2="326.7" y2="68.2"/>
					<line class="st33" x1="330.2" y1="66.7" x2="328.6" y2="68.2"/>
					<line class="st33" x1="325.2" y1="71.7" x2="326.6" y2="70.1"/>
					<line class="st33" x1="328.6" y1="70.1" x2="330.2" y2="71.7"/>
				</g>
				<g>
					<line class="st33" x1="338" y1="76.5" x2="339.6" y2="78"/>
					<line class="st33" x1="343.1" y1="76.5" x2="341.5" y2="78"/>
					<line class="st33" x1="338.1" y1="81.5" x2="339.5" y2="79.8"/>
					<line class="st33" x1="341.5" y1="79.9" x2="343.1" y2="81.4"/>
				</g>
			</g>
		</g>
		<line class="st35" x1="-4.3" y1="149.2" x2="395.8" y2="149"/>
		
			<ellipse id="lfoot_1_" transform="matrix(0.9949 -0.1008 0.1008 0.9949 -12.8409 22.2751)" class="st0" cx="214" cy="138.2" rx="13.5" ry="9.4"/>
		<circle class="st36" cx="199" cy="99.6" r="68.1"/>
		<g>
			<path class="st33" d="M145.6,161.5l116.6,1.2c15.4,0.2,40.2,3.6,55,7.6l75.5,20.3"/>
		</g>
		
			<image style="display:none;overflow:visible;enable-background:new    ;" width="512" height="512" xlink:href="../../../Downloads/cloud (3).png"  transform="matrix(0.16 0 0 0.16 161.822 164.6093)">
		</image>
		<g id="CLOUD1">
			<g>
				<g>
					<path class="st21" d="M144,135.3c3.6,1.5,8.2,4.6,10.4,6.8s-1.2,5.7-7.3,7.7s-14.8,2.6-19.3,1.4s-7.2-4.9-5.9-8.1
						c1.3-3.2,5.3-6.9,9-8.2C134.5,133.6,140.4,133.8,144,135.3z"/>
				</g>
				<g>
					<path class="st21" d="M140.4,134.9c0,0-11.4,3.2-1.1,11.5c0,0,6.6,1.1,9.3-4.9c0,0,1.9-6-2.2-9.8c0,0-4.3-3.3-8.2-3
						c0,0-7,0.9-8.8,6.8c0,0-7.9-4.9-8.8,4.7c0,0,2.8-0.9,3.6,0.6"/>
					<path class="st37" d="M140.4,134.9c0,0-11.4,3.2-1.1,11.5c0,0,6.6,1.1,9.3-4.9c0,0,1.9-6-2.2-9.8c0,0-4.3-3.3-8.2-3
						c0,0-7,0.9-8.8,6.8c0,0-7.9-4.9-8.8,4.7c0,0,2.8-0.9,3.6,0.6"/>
				</g>
				<g>
					<path class="st21" d="M124.7,140.4c0,0-6.6-0.1-8.1,4"/>
					<path class="st37" d="M124.7,140.4c0,0-6.6-0.1-8.1,4"/>
				</g>
				<g>
					<path class="st21" d="M119.2,153.8"/>
					<path class="st37" d="M119.2,153.8"/>
				</g>
				<g>
					<path class="st21" d="M111.7,152.1"/>
					<path class="st37" d="M111.7,152.1"/>
				</g>
				<g>
					<path class="st21" d="M158.8,144.7c0,0,1.6-1,3.5-0.6c0,0,3.4,0.8,3.5,2.8c0,0,3.4-0.8,6.1,0.3c0,0,4.1,2.2,4.7,4.1
						c0,0-1.9-0.3-2.9-0.8c0,0-4.1-1.3-6.1,1.2c0,0-2,2.2-3.7,2.8c0,0-3.9,4.9-7.8,1.7c0,0-5,3-8.1-1.8c0,0-1.1-0.4-2-1.4
						c0,0-5.7,8.6-12.8,0.8"/>
					<path class="st37" d="M158.8,144.7c0,0,1.6-1,3.5-0.6c0,0,3.4,0.8,3.5,2.8c0,0,3.4-0.8,6.1,0.3c0,0,4.1,2.2,4.7,4.1
						c0,0-1.9-0.3-2.9-0.8c0,0-4.1-1.3-6.1,1.2c0,0-2,2.2-3.7,2.8c0,0-3.9,4.9-7.8,1.7c0,0-5,3-8.1-1.8c0,0-1.1-0.4-2-1.4
						c0,0-5.7,8.6-12.8,0.8"/>
				</g>
				<g>
					<path class="st21" d="M122.9,150.5"/>
					<path class="st37" d="M122.9,150.5"/>
				</g>
				<g>
					<path class="st21" d="M149.6,141.2c0,0,2-1,5.1,0.3c0,0,2.8,1.5,3,2.6c0,0,1.7,2.3,0.9,3.5c0,0,0.2,2.1-1.6,4
						c0,0-1.9,2-5.3,1.1c0,0-3.1-1.2-2.8-4.4c0,0-0.3-3.5,3.4-3.6c0,0,2.3-0.3,3.2,2.7"/>
					<path class="st37" d="M149.6,141.2c0,0,2-1,5.1,0.3c0,0,2.8,1.5,3,2.6c0,0,1.7,2.3,0.9,3.5c0,0,0.2,2.1-1.6,4
						c0,0-1.9,2-5.3,1.1c0,0-3.1-1.2-2.8-4.4c0,0-0.3-3.5,3.4-3.6c0,0,2.3-0.3,3.2,2.7"/>
				</g>
				<g>
					<path class="st21" d="M132.4,149c0,0,0.2,2.1-1.1,2.2c0,0-3,1.6-4.1-1.7c0,0-0.3-1.8,0.5-3.3c0,0,0.5-1.2,3.5-1.4
						c0,0,2.4-0.1,3.6,2.2c0,0,1.2,1.4,0.3,4.1c0,0-0.9,2.5-2.2,3.3c0,0-3.9,1.8-6.5,1.5c0,0-2.2-0.5-2-1.4c0,0-2.1,0.8-2.9-0.2
						c0,0-2.8-1-4-3.4c0,0-0.9-0.9-0.5-4.9c0,0,0-2,3.5-4.5c0,0,1.6-0.9,3.7-1"/>
					<path class="st37" d="M132.4,149c0,0,0.2,2.1-1.1,2.2c0,0-3,1.6-4.1-1.7c0,0-0.3-1.8,0.5-3.3c0,0,0.5-1.2,3.5-1.4
						c0,0,2.4-0.1,3.6,2.2c0,0,1.2,1.4,0.3,4.1c0,0-0.9,2.5-2.2,3.3c0,0-3.9,1.8-6.5,1.5c0,0-2.2-0.5-2-1.4c0,0-2.1,0.8-2.9-0.2
						c0,0-2.8-1-4-3.4c0,0-0.9-0.9-0.5-4.9c0,0,0-2,3.5-4.5c0,0,1.6-0.9,3.7-1"/>
				</g>
			</g>
		</g>
		<g id="CLOUD2">
			<g>
				<g>
					<path class="st21" d="M202.3,133.3c-7.7,2.5-17.8,7.5-22.3,11.3s2.5,9.5,15.7,12.8c13.1,3.3,31.9,4.4,41.6,2.3
						s15.4-8.1,12.7-13.4c-2.8-5.3-11.4-11.5-19.3-13.6C222.8,130.6,210.1,130.8,202.3,133.3z"/>
				</g>
				<g>
					<path class="st21" d="M210.1,132.7c0,0,24.5,5.2,2.4,19.1c0,0-14.3,1.8-20.1-8.1c0,0-4.1-9.9,4.8-16.2c0,0,9.2-5.5,17.7-5
						c0,0,15,1.6,19.1,11.2c0,0,17-8.1,19.1,7.8c0,0-6.1-1.6-7.8,1"/>
					<path class="st38" d="M210.1,132.7c0,0,24.5,5.2,2.4,19.1c0,0-14.3,1.8-20.1-8.1c0,0-4.1-9.9,4.8-16.2c0,0,9.2-5.5,17.7-5
						c0,0,15,1.6,19.1,11.2c0,0,17-8.1,19.1,7.8c0,0-6.1-1.6-7.8,1"/>
				</g>
				<g>
					<path class="st21" d="M243.8,141.7c0,0,14.2-0.1,17.4,6.6"/>
					<path class="st37" d="M243.8,141.7c0,0,14.2-0.1,17.4,6.6"/>
				</g>
				<g>
					<path class="st21" d="M255.7,163.9"/>
					<path class="st37" d="M255.7,163.9"/>
				</g>
				<g>
					<path class="st21" d="M271.8,161.1"/>
					<path class="st37" d="M271.8,161.1"/>
				</g>
				<g>
					<path class="st21" d="M170.5,148.8c0,0-3.3-1.7-7.6-1c0,0-7.4,1.3-7.6,4.6c0,0-7.2-1.3-13.2,0.6c0,0-8.9,3.7-10.2,6.8
						c0,0,4.1-0.4,6.3-1.3c0,0,8.9-2.1,13.2,2c0,0,4.3,3.7,8,4.7c0,0,8.4,8.1,16.7,2.9c0,0,10.8,5,17.4-3c0,0,2.4-0.7,4.3-2.3
						c0,0,12.2,14.3,27.5,1.3"/>
					<path class="st38" d="M170.5,148.8c0,0-3.3-1.7-7.6-1c0,0-7.4,1.3-7.6,4.6c0,0-7.2-1.3-13.2,0.6c0,0-8.9,3.7-10.2,6.8
						c0,0,4.1-0.4,6.3-1.3c0,0,8.9-2.1,13.2,2c0,0,4.3,3.7,8,4.7c0,0,8.4,8.1,16.7,2.9c0,0,10.8,5,17.4-3c0,0,2.4-0.7,4.3-2.3
						c0,0,12.2,14.3,27.5,1.3"/>
				</g>
				<g>
					<path class="st21" d="M247.9,158.5"/>
					<path class="st37" d="M247.9,158.5"/>
				</g>
				<g>
					<path class="st21" d="M190.2,143.1c0,0-4.3-1.7-11,0.4c0,0-6.1,2.4-6.5,4.3c0,0-3.7,3.8-1.9,5.8c0,0-0.4,3.4,3.3,6.7
						c0,0,4.1,3.3,11.3,1.9c0,0,6.7-2,5.9-7.3c0,0,0.7-5.8-7.4-6c0,0-5-0.6-6.9,4.4"/>
					<path class="st38" d="M190.2,143.1c0,0-4.3-1.7-11,0.4c0,0-6.1,2.4-6.5,4.3c0,0-3.7,3.8-1.9,5.8c0,0-0.4,3.4,3.3,6.7
						c0,0,4.1,3.3,11.3,1.9c0,0,6.7-2,5.9-7.3c0,0,0.7-5.8-7.4-6c0,0-5-0.6-6.9,4.4"/>
				</g>
				<g>
					<path class="st21" d="M227.3,156c0,0-0.4,3.4,2.4,3.6c0,0,6.5,2.7,8.9-2.9c0,0,0.7-3-1.1-5.4c0,0-1.1-2-7.6-2.3
						c0,0-5.2-0.1-7.8,3.7c0,0-2.6,2.3-0.6,6.8c0,0,2,4.1,4.6,5.4c0,0,8.4,3,14.1,2.4c0,0,4.6-0.9,4.3-2.3c0,0,4.5,1.3,6.3-0.3
						c0,0,6.1-1.7,8.5-5.7c0,0,2-1.4,1.1-8.1c0,0,0-3.3-7.6-7.4c0,0-3.5-1.4-8-1.7"/>
					<path class="st38" d="M227.3,156c0,0-0.4,3.4,2.4,3.6c0,0,6.5,2.7,8.9-2.9c0,0,0.7-3-1.1-5.4c0,0-1.1-2-7.6-2.3
						c0,0-5.2-0.1-7.8,3.7c0,0-2.6,2.3-0.6,6.8c0,0,2,4.1,4.6,5.4c0,0,8.4,3,14.1,2.4c0,0,4.6-0.9,4.3-2.3c0,0,4.5,1.3,6.3-0.3
						c0,0,6.1-1.7,8.5-5.7c0,0,2-1.4,1.1-8.1c0,0,0-3.3-7.6-7.4c0,0-3.5-1.4-8-1.7"/>
				</g>
			</g>
		</g>
		<path class="st21" d="M256.6,207.9"/>
		<g>
			<path class="st39" d="M341.4,213.8c0,0.6-0.3,1.1-0.8,1.7c-3.7,3.8-19.5,6.7-38.5,6.7c-21.7,0-39.2-3.7-39.2-8.4
				c0-4.6,17.6-8.4,39.2-8.4S341.4,209.1,341.4,213.8z"/>
			<rect x="22.7" y="50.2" class="st21" width="51.7" height="102.1"/>
			<g id="MOUND">
				<path class="st40" d="M89.5,160.3c0,0.6-0.3,1.1-0.8,1.7c-3.7,3.8-19.5,6.7-38.5,6.7c-21.7,0-39.2-3.7-39.2-8.4
					c0-4.6,17.6-8.4,39.2-8.4S89.5,155.7,89.5,160.3z"/>
				<g>
					<rect x="22.7" y="50.2" class="st21" width="51.7" height="116.8"/>
					<path class="st41" d="M88.8,162.9c0,0,0.7,9.2,7.6,8.9"/>
					<g>
						<path class="st41" d="M11.3,163.9c0,0-1.7,2-3.8,4.4s-0.4,5.7,3.7,7.2l31.9,11.8c4.1,1.5,11,2.2,15.4,1.4l31-5.4"/>
					</g>
				</g>
			</g>
			<g>
				<path class="st42" d="M340.7,216.3c0,0,0.7,9.2,7.6,8.9"/>
				<path class="st42" d="M262.2,216.3c0,0-0.7,9.2-7.6,8.9"/>
			</g>
			<g class="st1">
				<path class="st43" d="M335.7,151.7c0,0,0.5,5.9-5.4,7.7c-1.4,0.5-3.3,0.7-5.6,0.5"/>
				<path class="st43" d="M330.1,158.4c0,0-0.5,9.3-10.9,6.7"/>
				<path class="st43" d="M320.8,165.1c0,0-7.7,5.8-15-1.1"/>
				<line class="st43" x1="314.5" y1="170.3" x2="314.5" y2="217.3"/>
				<line class="st43" x1="309.5" y1="170.3" x2="309.5" y2="174.6"/>
				<line class="st43" x1="304.4" y1="174.6" x2="304.4" y2="191.7"/>
				<line class="st43" x1="299.4" y1="200.2" x2="299.4" y2="208.8"/>
				<line class="st43" x1="294.4" y1="208.8" x2="294.4" y2="213.1"/>
				<line class="st43" x1="304.4" y1="208.8" x2="304.4" y2="213.1"/>
				<line class="st43" x1="284.4" y1="170.3" x2="284.4" y2="217.3"/>
				<g class="st3">
					<path class="st33" d="M261.4,159.5c0,0-0.5,5.9,5.4,7.7c1.4,0.5,3.3,0.7,5.6,0.5"/>
					<path class="st33" d="M266.9,166.2c0,0,0.5,9.3,10.9,6.7"/>
					<path class="st33" d="M276.3,173c0,0,7.7,5.8,15-1.1"/>
				</g>
				<g class="st3">
					<path class="st33" d="M282.7,180.2c0,0-1.3,0-2.8,0s-2.8,0.8-2.9,1.9c0,1-2.4,1.9-5.2,1.9c-2.8,0-5.1,1.1-5,2.5
						c0,1.3,2.3,2.4,5,2.4s4.9,1.1,4.9,2.5s9.5,2.4,21.1,2.4s21.1-1.1,21.1-2.4s1.6-2.4,3.6-2.5s3.5-1.6,3.4-3.4
						c-0.1-1.8-2-3.3-4.1-3.4c-2.1,0-3.9-1.2-4-2.5c-0.1-1.4-1.9-2.5-4.1-2.7c-2.2-0.1-4-0.2-4-0.2"/>
				</g>
				<g class="st3">
					<path class="st33" d="M286.5,181.7c0,0-0.9,0-2,0s-2,0.6-2.1,1.3c0,0.7-1.7,1.4-3.7,1.4s-3.6,0.8-3.6,1.8
						c0,0.9,1.6,1.7,3.6,1.7s3.5,0.8,3.5,1.8s6.8,1.7,15.1,1.7s15.1-0.8,15.1-1.7s1.1-1.7,2.6-1.8c1.4-0.1,2.5-1.2,2.5-2.5
						c-0.1-1.3-1.4-2.4-2.9-2.4s-2.8-0.8-2.9-1.8s-1.4-1.8-2.9-1.9c-1.6-0.1-2.8-0.1-2.8-0.1"/>
				</g>
				<g class="st3">
					<path class="st33" d="M289.1,196.7c0,0-0.9,0-2,0s-2,0.6-2,1.2c0,0.7-1.7,1.3-3.7,1.3s-3.6,0.8-3.6,1.6c0,0.9,1.6,1.6,3.6,1.6
						s3.5,0.7,3.5,1.6s6.7,1.6,15,1.6c8.2,0,15-0.7,14.9-1.6s1.1-1.6,2.5-1.6s2.5-1.1,2.4-2.3s-1.4-2.2-2.9-2.2s-2.8-0.8-2.9-1.7
						s-1.4-1.7-2.9-1.8s-2.8-0.1-2.8-0.1"/>
				</g>
			</g>
		</g>
		<path class="st44" d="M294.3,49"/>
		<g id="mountains_2_" class="st1">
			<path class="st2" d="M39.3,298.7L85.8,188c0,0,23.2-42.2,46.5,0l53.6,110.7H39.3z"/>
			<g class="st3">
				<path class="st4" d="M78.3,202.5l8,8.4c3.7,3.9,9.6,3.8,13.2-0.1l3.3-3.6c3.6-3.9,9.6-4,13.3-0.1l3.8,3.9
					c3.7,3.9,8.9,3.4,11.7-1c2.7-4.3,5.1-8.1,5.1-8.1"/>
			</g>
			<path class="st2" d="M189.8,298.7L236.3,188c0,0,23.2-42.2,46.5,0l53.6,110.7H189.8z"/>
			<g class="st3">
				<path class="st4" d="M125.1,298.9l46.5-121.1c0,0,23.2-46.1,46.5,0l53.6,121.1H125.1z"/>
				<path class="st4" d="M165.4,191.3l8,8.4c3.7,3.9,9.6,3.8,13.2-0.1l3.3-3.6c3.6-3.9,9.6-4,13.3-0.1l3.8,3.9
					c3.7,3.9,8.9,3.4,11.7-1c2.7-4.5,5.1-8.1,5.1-8.1"/>
			</g>
			<g class="st3">
				<path class="st4" d="M232.7,200.1l12.6,15.1c3.4,4,8.8,3.9,11.8-0.4l4.8-6.7c3.2-4.3,8.2-4.3,11.2,0l7.4,10.3
					c3.2,4.3,6.9,4,8.2-0.7c1.5-4.7,2.6-8.7,2.6-8.7"/>
			</g>
		</g>
		<g>
			<g id="ESS_1_" class="st1">
				<path class="st45" d="M93.6,12.3c0,0,47.2-1.9,29.4,9.3s10.7,10.3,10.7,10.3"/>
				<path class="st45" d="M63.6,32.3c0,0,47.2-1.9,29.4,9.3s10.7,10.3,10.7,10.3"/>
				<path class="st45" d="M53.6,65.3c0,0,47.2-1.9,29.4,9.3s10.7,10.3,10.7,10.3"/>
			</g>
			<path class="st29" d="M114.7,3.9c0,0,0.8,14.3-9.6,18.8c-2.6,1.1-5.8,1.6-10,1.2"/>
			<path class="st29" d="M104.7,20.1c0,0-0.9,22.7-19.6,16.3"/>
			<path class="st29" d="M88,36.6c0,0-13.7,14.2-27-2.8"/>
			<line class="st29" x1="76.7" y1="49.2" x2="76.7" y2="163.9"/>
			<line class="st29" x1="67.7" y1="49.2" x2="67.7" y2="59.6"/>
			<line class="st29" x1="58.7" y1="59.6" x2="58.7" y2="101.3"/>
			<line class="st29" x1="49.7" y1="122.2" x2="49.7" y2="143.1"/>
			<line class="st29" x1="40.7" y1="143.1" x2="40.7" y2="153.5"/>
			<line class="st29" x1="58.7" y1="143.1" x2="58.7" y2="153.5"/>
			<polyline class="st29" points="22.7,49.2 22.7,75 22.7,163.9 			"/>
			<g>
				<path class="st29" d="M-18.5,22.9c0,0-0.8,14.3,9.6,18.8c2.6,1.1,5.8,1.6,10,1.2"/>
				<path class="st29" d="M-8.5,39.2c0,0,0.9,22.7,19.6,16.3"/>
				<path class="st29" d="M8.2,55.7c0,0,13.7,14.2,27-2.8"/>
			</g>
			<g>
				<path class="st29" d="M19.7,73.4c0,0-2.3,0-5,0S9.6,75.5,9.5,78s-4.2,4.7-9.3,4.7c-5,0.1-9.1,2.8-9,6s4.1,5.8,9,5.8
					s8.9,2.7,8.9,6s17.1,5.9,37.9,5.8c20.9-0.1,37.8-2.7,37.8-5.8s2.8-5.8,6.4-6s6.4-3.9,6.1-8.4C97,81.7,93.7,78,89.9,78
					c-3.8-0.1-7.1-2.9-7.2-6.2c-0.2-2.9-2.7-5.5-6-6.3"/>
			</g>
			<g>
				<path class="st29" d="M26.6,77.1c0,0-1.6,0-3.6,0s-3.7,1.5-3.7,3.3c-0.1,1.8-3,3.3-6.6,3.4s-6.5,2-6.4,4.3s3,4.2,6.4,4.2
					s6.3,1.9,6.3,4.3s12.2,4.2,27.1,4.2s27.1-1.9,27-4.2c-0.1-2.2,2-4.2,4.6-4.3s4.6-2.8,4.4-6s-2.5-5.8-5.3-5.9"/>
			</g>
			<g>
				<path class="st29" d="M31.1,113.7c0,0-1.6,0-3.6,0s-3.6,1.4-3.7,3c-0.1,1.7-3,3.1-6.6,3.1c-3.6,0.1-6.4,1.8-6.4,4
					c0.1,2.1,2.9,3.9,6.4,3.9s6.3,1.8,6.3,4s12.1,3.9,26.9,3.9s26.8-1.8,26.8-3.9c-0.1-2.1,2-3.9,4.5-4c2.6-0.1,4.5-2.6,4.3-5.5
					s-2.5-5.4-5.2-5.4c-2.7-0.1-5-1.9-5.1-4.1s-2.5-4.1-5.2-4.3c-2.8-0.2-5-0.3-5-0.3"/>
			</g>
		</g>
		<path class="st46" d="M127.1,160.2c0,0,51.9,9.5-7.2,23.3c-59.2,13.9-10.2,37.8-10.2,37.8s44.7,44.3-66.3,56.8"/>
		<path class="st46" d="M150.2,169.7c0,0,51.9,9.5-7.2,23.3s-10.2,37.8-10.2,37.8s44.7,44.3-66.3,56.8"/>
		<path class="st47" d="M91.1,229.4c0,0,51.9,9.5-7.2,23.3s-10.2,37.8-10.2,37.8s44.7,44.3-66.3,56.8"/>
		<path class="st29" d="M200.8,327.8"/>
		<g id="ESS">
			<path class="st48" d="M243.6,31.9c0,0,28.5,0.9,10.7-10.3s29.4-9.3,29.4-9.3"/>
			<path class="st48" d="M273.6,51.9c0,0,28.5,0.9,10.7-10.3s29.4-9.3,29.4-9.3"/>
			<path class="st48" d="M283.6,84.9c0,0,28.5,0.9,10.7-10.3s29.4-9.3,29.4-9.3"/>
		</g>
		<line id="r1" class="st38" x1="223.5" y1="17.9" x2="244.1" y2="-16.7"/>
		<line id="r2" class="st38" x1="196.9" y1="15.5" x2="199.3" y2="-80.6"/>
		<line id="r3" class="st38" x1="166.1" y1="17.9" x2="145.5" y2="-16.7"/>
		<path class="st29" d="M328.9,103.3c0,0,4.7-7.3,8.7,0"/>
		<line class="st29" x1="31.7" y1="66" x2="40.7" y2="66"/>
	</g>
	<g id="Layer_3">
		<text transform="matrix(1.1428 0 0 1 63.8574 179.1016)" class="st49 st50"> </text>
		<g class="st51">
			<path d="M90.7,277.4v-39.8l-26.8-8.1v-14.9l42.9,12.7v61.1l-42.9,10.8v-61.6l16.1,4.7V280L90.7,277.4z"/>
			<path d="M155.1,228.8v14.1h-26.8v17.3l26.8-11.1v15.6l-26.8,11.1v4.7h26.8v14.1h-42.9v-65.7h42.9V228.8z"/>
			<path d="M160.5,294.5v-63.6l42.9-15.5v13.4h26.8v65.7h-16.1v-51.7h-10.7v51.7h-16.1v-59.2l-10.7,2.8v56.4H160.5z"/>
			<path d="M278.5,228.8v65.7h-42.9v-65.7H278.5z M262.4,280.4v-37.6h-10.7v37.6H262.4z"/>
			<path d="M310.7,228.8h16.1v65.7h-16.1v-42.3l-10.7-4.5v46.7h-16.1v-65.7H300v3.4l10.7,4.5V228.8z"/>
		</g>
		<g id="CLOUD5">
			<g>
				<g>
					<path class="st21" d="M307.6,268.9c-4.8,2-11,6.1-13.8,9.1s1.6,7.7,9.7,10.3c8.1,2.7,19.7,3.5,25.7,1.9s9.5-6.5,7.8-10.8
						s-7.1-9.2-11.9-10.9S312.4,266.9,307.6,268.9z"/>
				</g>
				<g>
					<path class="st21" d="M312.4,268.4c0,0,15.2,4.2,1.5,15.4c0,0-8.8,1.5-12.4-6.5c0,0-2.5-8,2.9-13.1c0,0,5.7-4.4,11-4
						c0,0,9.3,1.3,11.8,9.1c0,0,10.5-6.5,11.8,6.3c0,0-3.8-1.3-4.8,0.8"/>
					<path class="st37" d="M312.4,268.4c0,0,15.2,4.2,1.5,15.4c0,0-8.8,1.5-12.4-6.5c0,0-2.5-8,2.9-13.1c0,0,5.7-4.4,11-4
						c0,0,9.3,1.3,11.8,9.1c0,0,10.5-6.5,11.8,6.3c0,0-3.8-1.3-4.8,0.8"/>
				</g>
				<g>
					<path class="st21" d="M333.2,275.7c0,0,8.8-0.1,10.8,5.3"/>
					<path class="st37" d="M333.2,275.7c0,0,8.8-0.1,10.8,5.3"/>
				</g>
				<g>
					<path class="st21" d="M340.6,293.6"/>
					<path class="st37" d="M340.6,293.6"/>
				</g>
				<g>
					<path class="st21" d="M350.6,291.3"/>
					<path class="st37" d="M350.6,291.3"/>
				</g>
				<g>
					<path class="st21" d="M287.9,281.4c0,0-2.1-1.4-4.7-0.8c0,0-4.6,1-4.7,3.7c0,0-4.5-1-8.2,0.5c0,0-5.5,3-6.3,5.5
						c0,0,2.5-0.3,3.9-1c0,0,5.5-1.7,8.2,1.6c0,0,2.6,3,4.9,3.8c0,0,5.2,6.5,10.3,2.3c0,0,6.7,4,10.8-2.4c0,0,1.5-0.6,2.6-1.8
						c0,0,7.6,11.5,17,1"/>
					<path class="st37" d="M287.9,281.4c0,0-2.1-1.4-4.7-0.8c0,0-4.6,1-4.7,3.7c0,0-4.5-1-8.2,0.5c0,0-5.5,3-6.3,5.5
						c0,0,2.5-0.3,3.9-1c0,0,5.5-1.7,8.2,1.6c0,0,2.6,3,4.9,3.8c0,0,5.2,6.5,10.3,2.3c0,0,6.7,4,10.8-2.4c0,0,1.5-0.6,2.6-1.8
						c0,0,7.6,11.5,17,1"/>
				</g>
				<g>
					<path class="st21" d="M335.7,289.2"/>
					<path class="st37" d="M335.7,289.2"/>
				</g>
				<g>
					<path class="st21" d="M300,276.8c0,0-2.6-1.4-6.8,0.3c0,0-3.8,2-4,3.4c0,0-2.3,3.1-1.1,4.7c0,0-0.2,2.8,2.1,5.4
						c0,0,2.5,2.6,7,1.5c0,0,4.1-1.6,3.7-5.9c0,0,0.5-4.7-4.6-4.8c0,0-3.1-0.5-4.2,3.6"/>
					<path class="st37" d="M300,276.8c0,0-2.6-1.4-6.8,0.3c0,0-3.8,2-4,3.4c0,0-2.3,3.1-1.1,4.7c0,0-0.2,2.8,2.1,5.4
						c0,0,2.5,2.6,7,1.5c0,0,4.1-1.6,3.7-5.9c0,0,0.5-4.7-4.6-4.8c0,0-3.1-0.5-4.2,3.6"/>
				</g>
				<g>
					<path class="st21" d="M323,287.2c0,0-0.2,2.8,1.5,2.9c0,0,4,2.2,5.5-2.3c0,0,0.5-2.4-0.7-4.4c0,0-0.7-1.6-4.7-1.8
						c0,0-3.2-0.1-4.8,3c0,0-1.6,1.8-0.3,5.5c0,0,1.3,3.3,2.9,4.4c0,0,5.2,2.4,8.7,2c0,0,2.9-0.7,2.6-1.8c0,0,2.8,1,3.9-0.2
						c0,0,3.8-1.4,5.3-4.6c0,0,1.3-1.1,0.7-6.5c0,0,0-2.6-4.7-6c0,0-2.2-1.1-4.9-1.4"/>
					<path class="st37" d="M323,287.2c0,0-0.2,2.8,1.5,2.9c0,0,4,2.2,5.5-2.3c0,0,0.5-2.4-0.7-4.4c0,0-0.7-1.6-4.7-1.8
						c0,0-3.2-0.1-4.8,3c0,0-1.6,1.8-0.3,5.5c0,0,1.3,3.3,2.9,4.4c0,0,5.2,2.4,8.7,2c0,0,2.9-0.7,2.6-1.8c0,0,2.8,1,3.9-0.2
						c0,0,3.8-1.4,5.3-4.6c0,0,1.3-1.1,0.7-6.5c0,0,0-2.6-4.7-6c0,0-2.2-1.1-4.9-1.4"/>
				</g>
			</g>
		</g>
		<g id="LAST">
			<path class="st21" d="M168.2,252.9c-2.8,0-5.1,0.8-5.1,2c0,1.1,1.8,2,4,2s4,2.5,4,5.6s2.7,5.6,6,5.6s5.9,1.5,5.8,3.3
				c0,1.8,3.2,3.3,7.2,3.2c4,0,7.2-1.6,7.1-3.5s3-3.5,6.9-3.6c3.8-0.1,7-3,7-6.4s2.1-6.2,4.7-6.2c2.6,0,4.7-1.8,4.6-3.9
				s-3.8-3.8-8.3-3.8s-8.2,0.7-8.2,1.5s2.7,1.3,5.9,1.2c3.2-0.2,5.8,0.3,5.8,1.1s-1.8,1.4-3.8,1.4c-2.1,0-3.8,2.6-3.9,5.8
				c-0.1,3.1-3.1,5.8-6.8,5.8c-3.7,0.1-6.7,1.4-6.7,3s-1.9,2.9-4.3,2.9c-2.4,0-4.3-1.3-4.3-2.9s-2.8-2.9-6.1-3s-6.1-2.6-6.2-5.6
				C173.3,255.5,171,253,168.2,252.9z"/>
			<path class="st33" d="M168.2,252.9c-2.8,0-5.1,0.8-5.1,2c0,1.1,1.8,2,4,2s4,2.5,4,5.6s2.7,5.6,6,5.6s5.9,1.5,5.8,3.3
				c0,1.8,3.2,3.3,7.2,3.2c4,0,7.2-1.6,7.1-3.5s3-3.5,6.9-3.6c3.8-0.1,7-3,7-6.4s2.1-6.2,4.7-6.2c2.6,0,4.7-1.8,4.6-3.9
				s-3.8-3.8-8.3-3.8s-8.2,0.7-8.2,1.5s2.7,1.3,5.9,1.2c3.2-0.2,5.8,0.3,5.8,1.1s-1.8,1.4-3.8,1.4c-2.1,0-3.8,2.6-3.9,5.8
				c-0.1,3.1-3.1,5.8-6.8,5.8c-3.7,0.1-6.7,1.4-6.7,3s-1.9,2.9-4.3,2.9c-2.4,0-4.3-1.3-4.3-2.9s-2.8-2.9-6.1-3s-6.1-2.6-6.2-5.6
				C173.3,255.5,171,253,168.2,252.9z"/>
		</g>
		<g id="SKULL">
			<g>
				<path class="st21" d="M149.3,247.4c0,0,6.6,18.9,25.2,3.6C193,235.8,157.3,203.7,149.3,247.4z"/>
				<path class="st33" d="M149.3,247.4c0,0,6.6,18.9,25.2,3.6C193,235.8,157.3,203.7,149.3,247.4z"/>
			</g>
			<ellipse class="st33" cx="168.1" cy="245.5" rx="3.8" ry="6.9"/>
			<ellipse class="st33" cx="156.1" cy="244.4" rx="3.1" ry="5.1"/>
			<text transform="matrix(1 0 0 1 159.0237 254.4922)" class="st52 st53">X</text>
			<polyline class="st54" points="164.7,225.9 167,230.2 163.7,233.1 167.6,235.7 			"/>
			<line class="st54" x1="171.2" y1="227.9" x2="167" y2="230.2"/>
		</g>
	</g>
	<g transform="translate(0.000000,1280.000000) scale(0.100000,-0.100000)" class="st1">
		<path class="st3" d="M2877.2,11236.9c0-0.1-0.4-2.5-0.8-5.4c-4.5-30.2-12-51.5-24.8-71.4c-2.3-3.5-5.1-7.4-10.4-14.7
			c-9.2-12.4-11.3-15.7-14.5-22.1c-3.9-7.8-6-14.9-7.1-24.3c-0.4-3.1-0.4-11.2-0.1-14.2c1.9-16.8,9.2-31.6,22.7-45.9
			c8.8-9.4,22.8-19.5,31-22.3l1.6-0.5h6.8c3.7,0,6.8,0.1,6.8,0.1s-2,2.5-4.5,5.5c-5.5,6.5-7.3,8.8-9.8,12.5
			c-6.2,9.2-10,17.3-11.7,24.9c-0.8,3.8-1,6.9-0.5,10.4c1,7.5,3,11.8,9.7,20.9c1.3,1.8,3.8,5.2,5.6,7.6c5.3,7.2,8,11.2,11.5,17.1
			c5.2,8.8,9.7,18.4,13.3,28.4c0.5,1.4,1,2.6,1.1,2.7c0.2,0.2,3.3-2.7,8-7.3c13-12.8,18.9-22.4,22.6-37c1.6-6.4,2-8.9,2-14.3
			c0-8.1-1.3-16.4-4.4-28c-3.1-11.5-6.9-22.4-13.1-36.9c-1.4-3.3-2.6-6.1-2.6-6.2c0-0.1,2-0.1,4.4-0.1h4.4l3.5,2.6
			c14.8,11.2,24.5,21.1,32.5,33.1c9.2,13.8,14.3,28.2,15.8,44.3c0.3,3.5,0.3,12.7-0.1,16.3c-2,19.9-9.2,38.5-22.4,58.2
			c-15.1,22.4-37,43.8-66.2,64.3l-3.1,2.2h-3.5C2878.5,11237,2877.2,11237,2877.2,11236.9z"/>
	</g>
	<g transform="translate(0.000000,1280.000000) scale(0.100000,-0.100000)">
		<path d="M1061.1,11067.4c0,0-0.2-1.4-0.4-3c-2.5-16.6-6.6-28.3-13.6-39.2c-1.3-1.9-2.8-4.1-5.7-8.1c-5-6.8-6.2-8.6-8-12.1
			c-2.1-4.3-3.3-8.2-3.9-13.4c-0.2-1.7-0.2-6.1,0-7.8c1-9.2,5.1-17.4,12.4-25.2c4.9-5.2,12.5-10.7,17-12.2l0.9-0.3h3.7
			c2,0,3.7,0,3.7,0.1s-1.1,1.4-2.5,3c-3,3.6-4,4.9-5.4,6.8c-3.4,5-5.5,9.5-6.4,13.7c-0.4,2.1-0.5,3.8-0.3,5.7
			c0.5,4.1,1.6,6.5,5.3,11.5c0.7,1,2.1,2.9,3.1,4.2c2.9,4,4.4,6.1,6.3,9.4c2.8,4.8,5.3,10.1,7.3,15.6c0.3,0.8,0.5,1.4,0.6,1.5
			s1.8-1.5,4.4-4c7.1-7,10.4-12.3,12.4-20.3c0.9-3.5,1.1-4.9,1.1-7.8c0-4.5-0.7-9-2.4-15.4c-1.7-6.3-3.8-12.3-7.2-20.3
			c-0.8-1.8-1.4-3.4-1.4-3.4s1.1-0.1,2.4-0.1h2.4l1.9,1.4c8.1,6.2,13.5,11.6,17.9,18.2c5,7.6,7.9,15.5,8.7,24.3c0.2,1.9,0.2,7-0.1,9
			c-1.1,10.9-5.1,21.2-12.3,32c-8.3,12.3-20.3,24-36.4,35.3l-1.7,1.2h-1.9C1061.8,11067.5,1061.1,11067.4,1061.1,11067.4z"/>
	</g>
	<line class="st47" x1="282.4" y1="178.8" x2="297.8" y2="178.8"/>
	<path class="st21" d="M21.3,166.9c0,0,24,6.8,56.2,0"/>
	<g>
		<path d="M141.1,219.4v-41.2l27.6-10v8.7H186v42.5h-10.3V186h-6.9v33.4h-10.3v-38.3l-6.9,1.8v36.5H141.1z"/>
		<path d="M196.3,186h-6.9v-9.1h24.1v9.1h-6.9v33.4h-10.3L196.3,186L196.3,186z"/>
		<path d="M244.6,176.9v30.4l-2.8,12.1l0.1,0.1l-24.8,8.6v-51.2h10.3v38.3l5.3-2l1.6-6.8v-29.5L244.6,176.9L244.6,176.9z"/>
	</g>
	<path class="st55" d="M148.7,48"/>
	<ellipse transform="matrix(0.4389 -0.8985 0.8985 0.4389 17.742 169.1247)" class="st56" cx="144.3" cy="70.4" rx="22.5" ry="6"/>
	<g transform="translate(0.000000,1280.000000) scale(0.100000,-0.100000)">
		<path d="M255.9,10070h-3.5l-3.1-2.2c-29.2-20.5-51.1-41.8-66.2-64.3c-13.2-19.6-20.4-38.3-22.4-58.2c-0.4-3.6-0.4-12.8-0.1-16.3
			c1.5-16.1,6.6-30.5,15.8-44.3c8-12,17.7-21.9,32.5-33.1l3.5-2.6h4.4c2.4,0,4.4,0.1,4.4,0.1c0,0.1-1.2,2.9-2.6,6.2
			c-6.2,14.5-10,25.4-13.1,36.9c-3.1,11.6-4.4,19.9-4.4,28c0,5.3,0.3,7.9,2,14.3c3.7,14.6,9.6,24.2,22.6,37c4.7,4.6,7.8,7.5,8,7.3
			c0.1-0.1,0.6-1.3,1.1-2.7c3.6-10,8.2-19.6,13.3-28.4c3.5-5.9,6.2-9.9,11.5-17.1c1.8-2.4,4.3-5.8,5.6-7.6
			c6.7-9.1,8.7-13.4,9.7-20.9c0.5-3.5,0.3-6.6-0.5-10.4c-1.6-7.5-5.4-15.7-11.7-24.9c-2.5-3.6-4.3-6-9.8-12.5
			c-2.5-3-4.5-5.4-4.5-5.5s3-0.1,6.8-0.1h6.8l1.6,0.5c8.2,2.8,22.1,12.8,31,22.3c13.4,14.3,20.8,29.1,22.7,45.9
			c0.3,3,0.3,11-0.1,14.2c-1.1,9.4-3.2,16.5-7.1,24.3c-3.2,6.4-5.3,9.7-14.5,22.1c-5.3,7.2-8.1,11.2-10.4,14.7
			c-12.8,19.9-20.3,41.2-24.8,71.4c-0.4,2.9-0.8,5.3-0.8,5.4C259.4,10069.9,258.1,10070,255.9,10070z"/>
	</g>
	<line class="st33" x1="30.7" y1="295.8" x2="15.4" y2="295.3"/>
	<g transform="translate(0.000000,1280.000000) scale(0.100000,-0.100000)">
		<path d="M3507.2,10416.9c0-0.1-0.4-2.5-0.8-5.4c-4.5-30.2-12-51.5-24.8-71.4c-2.3-3.5-5.1-7.4-10.4-14.7
			c-9.2-12.4-11.3-15.7-14.5-22.1c-3.9-7.8-6-14.9-7.1-24.3c-0.4-3.1-0.4-11.2-0.1-14.2c1.9-16.8,9.2-31.6,22.7-45.9
			c8.8-9.4,22.8-19.5,31-22.3l1.6-0.5h6.8c3.7,0,6.8,0.1,6.8,0.1s-2,2.5-4.5,5.5c-5.5,6.5-7.3,8.8-9.8,12.5
			c-6.2,9.2-10,17.3-11.7,24.9c-0.8,3.8-1,6.9-0.5,10.4c1,7.5,3,11.8,9.7,20.9c1.3,1.8,3.8,5.2,5.6,7.6c5.3,7.2,8,11.2,11.5,17.1
			c5.2,8.8,9.7,18.4,13.3,28.4c0.5,1.4,1,2.6,1.1,2.7c0.2,0.2,3.3-2.7,8-7.3c13-12.8,18.9-22.4,22.6-37c1.6-6.4,2-8.9,2-14.3
			c0-8.1-1.3-16.4-4.4-28c-3.1-11.5-6.9-22.4-13.1-36.9c-1.4-3.3-2.6-6.1-2.6-6.2c0-0.1,2-0.1,4.4-0.1h4.4l3.5,2.6
			c14.8,11.2,24.5,21.1,32.5,33.1c9.2,13.8,14.3,28.2,15.8,44.3c0.3,3.5,0.3,12.7-0.1,16.3c-2,19.9-9.2,38.5-22.4,58.2
			c-15.1,22.4-37,43.8-66.2,64.3l-3.1,2.2h-3.5C3508.5,10417,3507.2,10417,3507.2,10416.9z"/>
	</g>
	<line class="st33" x1="345.9" y1="261.1" x2="361.3" y2="260.6"/>
	<g>
		<path class="st37" d="M93.2,155.2c0,0,4.5,4.1,9.9,9.1s2.9,12.8-5.6,17.3s10.2,17.7,41.7,29.5l117,43.7"/>
	</g>
	<g>
		<path class="st37" d="M110.2,160.1c0,0,4.6,4.8,10.2,10.7s5.4,11.5-0.4,12.4c-5.8,1,14.9,11.8,46.2,24.1l152.6,60.1"/>
	</g>
	<g>
		<path class="st37" d="M125.5,160.1c0,0,2.9,2.5,6.3,5.5c3.5,3,3.9,5.7,1,6.1c-2.9,0.3,1,4.3,8.6,8.9s14,8.3,14,8.3"/>
	</g>
	<path class="st57" d="M108.6,189c0,0-1-5.8,5.8-4.3c0,0,1.3-7.9,8.4-4.1c0,0,4.6,2.5,1,7.1l8.1,8.1l-5.1,4.6l-8.6-8.4
		C118.2,192,112.4,197.4,108.6,189z"/>
	<g class="st1">
		<path class="st58" d="M295.8-0.4l14.5,38c2.4,6.2,6.3,6.2,8.7,0.1l15.4-38.9"/>
		<path class="st59" d="M295.8-0.4l14.5,38c2.4,6.2,6.3,6.2,8.7,0.1l15.4-38.9"/>
	</g>
	<g>
		<path class="st37" d="M-58,294.8"/>
	</g>
	<g>
		<path class="st38" d="M105,195.2c0,0-4.5,4.1-9.9,9.1s-2.9,12.8,5.6,17.3s4.5,12.2-8.9,17.2s-24.3,9.1-24.3,9.1"/>
	</g>
	<g class="st1">
		<path class="st59" d="M89.9,191.9c0,0-4.6,4.8-10.2,10.7s-5.4,11.5,0.4,12.4c5.8,1-14.9,11.8-46.2,24.1l-152.6,60.1"/>
	</g>
	<g>
		<path class="st38" d="M74.6,191.9c0,0-2.9,2.5-6.3,5.5c-3.5,3-3.9,5.7-1,6.1c2.9,0.3-1,4.3-8.6,8.9s-14,8.3-14,8.3"/>
	</g>
	<g id="CLOUD3">
		<g>
			<g>
				<path class="st21" d="M57.4,197.9c4.8,2,11,6.1,13.8,9.1s-1.6,7.7-9.7,10.3s-19.7,3.5-25.7,1.9s-9.5-6.5-7.8-10.8
					s7.1-9.2,11.9-10.9C44.7,195.7,52.6,195.9,57.4,197.9z"/>
			</g>
			<g>
				<path class="st21" d="M52.6,197.4c0,0-15.2,4.2-1.5,15.4c0,0,8.8,1.5,12.4-6.5c0,0,2.5-8-2.9-13.1c0,0-5.7-4.4-11-4
					c0,0-9.3,1.3-11.8,9.1c0,0-10.5-6.5-11.8,6.3c0,0,3.8-1.3,4.8,0.8"/>
				<path class="st37" d="M52.6,197.4c0,0-15.2,4.2-1.5,15.4c0,0,8.8,1.5,12.4-6.5c0,0,2.5-8-2.9-13.1c0,0-5.7-4.4-11-4
					c0,0-9.3,1.3-11.8,9.1c0,0-10.5-6.5-11.8,6.3c0,0,3.8-1.3,4.8,0.8"/>
			</g>
			<g>
				<path class="st21" d="M31.7,204.7c0,0-8.8-0.1-10.8,5.3"/>
				<path class="st37" d="M31.7,204.7c0,0-8.8-0.1-10.8,5.3"/>
			</g>
			<g>
				<path class="st21" d="M24.4,222.6"/>
				<path class="st37" d="M24.4,222.6"/>
			</g>
			<g>
				<path class="st21" d="M14.4,220.3"/>
				<path class="st37" d="M14.4,220.3"/>
			</g>
			<g>
				<path class="st21" d="M77.1,210.4c0,0,2.1-1.4,4.7-0.8c0,0,4.6,1,4.7,3.7c0,0,4.5-1,8.2,0.5c0,0,5.5,3,6.3,5.5
					c0,0-2.5-0.3-3.9-1c0,0-5.5-1.7-8.2,1.6c0,0-2.6,3-4.9,3.8c0,0-5.2,6.5-10.3,2.3c0,0-6.7,4-10.8-2.4c0,0-1.5-0.6-2.6-1.8
					c0,0-7.6,11.5-17,1"/>
				<path class="st37" d="M77.1,210.4c0,0,2.1-1.4,4.7-0.8c0,0,4.6,1,4.7,3.7c0,0,4.5-1,8.2,0.5c0,0,5.5,3,6.3,5.5
					c0,0-2.5-0.3-3.9-1c0,0-5.5-1.7-8.2,1.6c0,0-2.6,3-4.9,3.8c0,0-5.2,6.5-10.3,2.3c0,0-6.7,4-10.8-2.4c0,0-1.5-0.6-2.6-1.8
					c0,0-7.6,11.5-17,1"/>
			</g>
			<g>
				<path class="st21" d="M29.2,218.2"/>
				<path class="st37" d="M29.2,218.2"/>
			</g>
			<g>
				<path class="st21" d="M64.9,205.8c0,0,2.6-1.4,6.8,0.3c0,0,3.8,2,4,3.4c0,0,2.3,3.1,1.1,4.7c0,0,0.2,2.8-2.1,5.4
					c0,0-2.5,2.6-7,1.5c0,0-4.1-1.6-3.7-5.9c0,0-0.5-4.7,4.6-4.8c0,0,3.1-0.5,4.2,3.6"/>
				<path class="st37" d="M64.9,205.8c0,0,2.6-1.4,6.8,0.3c0,0,3.8,2,4,3.4c0,0,2.3,3.1,1.1,4.7c0,0,0.2,2.8-2.1,5.4
					c0,0-2.5,2.6-7,1.5c0,0-4.1-1.6-3.7-5.9c0,0-0.5-4.7,4.6-4.8c0,0,3.1-0.5,4.2,3.6"/>
			</g>
			<g>
				<path class="st21" d="M41.9,216.2c0,0,0.2,2.8-1.5,2.9c0,0-4,2.2-5.5-2.3c0,0-0.5-2.4,0.7-4.4c0,0,0.7-1.6,4.7-1.8
					c0,0,3.2-0.1,4.8,3c0,0,1.6,1.8,0.3,5.5c0,0-1.3,3.3-2.9,4.4c0,0-5.2,2.4-8.7,2c0,0-2.9-0.7-2.6-1.8c0,0-2.8,1-3.9-0.2
					c0,0-3.8-1.4-5.3-4.6c0,0-1.3-1.1-0.7-6.5c0,0,0-2.6,4.7-6c0,0,2.2-1.1,4.9-1.4"/>
				<path class="st37" d="M41.9,216.2c0,0,0.2,2.8-1.5,2.9c0,0-4,2.2-5.5-2.3c0,0-0.5-2.4,0.7-4.4c0,0,0.7-1.6,4.7-1.8
					c0,0,3.2-0.1,4.8,3c0,0,1.6,1.8,0.3,5.5c0,0-1.3,3.3-2.9,4.4c0,0-5.2,2.4-8.7,2c0,0-2.9-0.7-2.6-1.8c0,0-2.8,1-3.9-0.2
					c0,0-3.8-1.4-5.3-4.6c0,0-1.3-1.1-0.7-6.5c0,0,0-2.6,4.7-6c0,0,2.2-1.1,4.9-1.4"/>
			</g>
		</g>
	</g>
	<path class="st29" d="M64.8,248.4c-7.1,10.1-26.9,15-44.3,10.9C6.6,256-0.1,246.8,5.6,238.7c4.5-6.5,17.2-9.6,28.4-7
		c8.9,2.1,13.2,8,9.6,13.2c-2.9,4.1-11,6.1-18.2,4.4c-5.7-1.3-8.4-5.1-6.1-8.4c1.9-2.7,7.1-3.9,11.6-2.8c3.6,0.9,5.4,3.3,3.9,5.4
		c-1.2,1.7-4.5,2.5-7.4,1.8c-2.3-0.6-3.5-2.1-2.5-3.5"/>
	
		<ellipse id="SRING_1_" transform="matrix(0.5 -0.866 0.866 0.5 11.0192 139.913)" class="st60" cx="126.7" cy="60.4" rx="31.7" ry="5"/>
	
		<ellipse id="SRING" transform="matrix(0.5 -0.866 0.866 0.5 12.7228 127.4033)" class="st60" cx="116.7" cy="52.7" rx="39.9" ry="6.2"/>
	<path class="st33" d="M464.3,271.3"/>
	<path class="st33" d="M331.5,173.9c3.1,0.2,6.3-0.1,9.4-0.8c8.3-2,12.3-7.5,8.9-12.3c-2.7-3.9-10.3-5.7-16.9-4.2
		c-5.3,1.3-7.9,4.8-5.7,7.9c1.7,2.5,6.6,3.7,10.8,2.7c3.4-0.8,5-3.1,3.7-5c-1.1-1.6-4.2-2.3-6.9-1.7c-2.2,0.5-3.2,2-2.3,3.2
		c0.7,1,2.7,1.5,4.4,1.1c1.4-0.3,2.1-1.3,1.5-2.1"/>
	<path class="st41" d="M-64.7,195"/>
	<path class="st41" d="M266.5,180.1"/>
	<path class="st61" d="M266.6,182.2c0-7.4,6-13.3,13.3-13.3c7.4,0,13.3,6,13.3,13.3"/>
	<path class="st61" d="M288.6,182.2c0-3.3,2.7-5.9,5.9-5.9s5.9,2.7,5.9,5.9"/>
	<path class="st34" d="M274.6,172.1l0.9,0.9c0,0-2.7,2.4-2.7,3.4C273,177.2,272.4,174.4,274.6,172.1z"/>
	<path class="st34" d="M275.3,174.1l0.6,0.6c0,0-1.6,1.3-1.5,1.9C274.5,177.1,274,175.5,275.3,174.1z"/>
	<path class="st41" d="M442.6,156.4"/>
</g>
<g id="Layer_3_1_">
</g>
<script  id="script4196" type="text/javascript">
	<![CDATA[

	var c1 = Snap("#CLOUD1");
	var c2 = Snap("#CLOUD2");
	var c3 = Snap("#CLOUD3");
		var c5 = Snap("#CLOUD5");
		console.log(c3)


	
				setInterval(function(){

			c2.animate({ transform:'t0,-10'},300,function(){
			c2.animate({ transform:'t0,0'},300)
		})},600)
						
		setInterval(function(){
			c2.animate({ transform:'t0,-10'},300,function(){
c2.animate({ transform:'t0,0'},300)
})
		},600)
				setInterval(function(){

			c3.animate({ transform:'t0,-10'},300,function(){
			c3.animate({ transform:'t0,0'},300)
		})},600)
							setInterval(function(){
			c2.animate({ transform:'t0,-10'},300,function(){
c2.animate({ transform:'t0,0'},300)
})
		},600)
				setInterval(function(){

			c5.animate({ transform:'t0,-10'},300,function(){
			c5.animate({ transform:'t0,0'},300)
		})},600)	
		setInterval(function(){
			c3.animate({ transform:'t0,-10'},300,function(){
c3.animate({ transform:'t0,0'},300)
})
		},600)
	

		var firstStepBody = function(){

			console.log("Hello?")
			c1.animate(
				{ transform:'t0,0' },300, secondStepBody
			)
				c2.animate(
				{ transform:'t0,0' },300, secondStepBody
			)
				c3.animate(
				{ transform:'t0,0' },300, secondStepBody
			)

		}
		var secondStepBody = function(){

			c1.animate(
				{ transform:'t0,-10' },300, firstStepBody
			)
				c2.animate(
				{ transform:'t0,-10' },300, firstStepBody
			)
				c3.animate(
				{ transform:'t0,-10' },300, firstStepBody
			)

		}
	
		
		//firstStepBody()

			
		
		
			
				
		]]>
</script>
<path class="st62" d="M323.8,118.3c0,0-1.5,18-9.8,22.5"/>
<path class="st62" d="M328.9,122c0,0,0.5,8.5-3,11.1"/>
<path class="st29" d="M335.3,110.5c0,0,4.1,23.2-1.7,29.6"/>
</svg>
