<svg id="Layer_1" data-name="Layer 1" xmlns="http://www.w3.org/2000/svg" viewBox="0 0 415.82 380.05"><title>JSON</title><ellipse id="rfoot" cx="201.81" cy="217.74" rx="13.5" ry="9.4" style="fill:#fff;stroke:#010101;stroke-miterlimit:3;stroke-width:2.4000000953674316px"/><path d="M166.7,39s53.3,62.1-34.2,80.6" transform="translate(20.01 80.64)" style="fill:#fff;stroke:#000;stroke-miterlimit:3;stroke-width:4px;opacity:0.9900000095367432;isolation:isolate"/><g id="Foosha"><g id="fFoosha"><ellipse id="lfoot" cx="181.84" cy="137.14" rx="9.4" ry="13.5" transform="translate(37.23 375.17) rotate(-80.74)" style="fill:#fff;stroke:#010101;stroke-miterlimit:3.0002348642084953;stroke-width:2.4002079671142726px"/><path d="M221.7,128.8s28.2-7.2,22-26.1c0,0-10.2-12.6-12.6-9.9,0,0-3-4.8.9-7.8,0,0-10.6,6-7.2,9.2,0,0,14.3,17.6,1.7,14.5" transform="translate(20.01 80.64)" style="fill:#fff;stroke:#020202;stroke-miterlimit:3;stroke-width:2.4000000953674316px"/><ellipse cx="219.91" cy="193.44" rx="25.9" ry="25.4" style="fill:#fff;stroke:#010101;stroke-miterlimit:3;stroke-width:2.4000000953674316px"/><ellipse cx="215.31" cy="197.04" rx="17.2" ry="15.7" style="fill:#fff;stroke:#020202;stroke-miterlimit:3;stroke-width:2.0999999046325684px"/><circle cx="216.41" cy="161.64" r="29.5" style="fill:#fff;stroke:#010101;stroke-miterlimit:3;stroke-width:2.4000000953674316px"/><ellipse id="eli2" cx="179.62" cy="75.93" rx="4.7" ry="2" transform="translate(108.62 329.04) rotate(-85.09)" style="fill:#010101;stroke:#020202;stroke-miterlimit:2.9995884180396764;stroke-width:1.4996441301105663px"/><ellipse id="eli" cx="219.61" cy="156.54" rx="3.3" ry="5.1" style="fill:#010101;stroke:#020202;stroke-miterlimit:3;stroke-width:1.5px"/><path d="M179.5,110.5a44,44,0,0,0,32,.8" transform="translate(20.01 80.64)" style="fill:none;stroke:#010101;stroke-miterlimit:3;stroke-width:1.2000000476837158px"/><ellipse cx="251.81" cy="165.94" rx="1.1" ry="1.2" style="fill:#010101;stroke:#020202;stroke-miterlimit:3;stroke-width:0.25px"/><path d="M236.1,117.9c-1.1-.6-1.1-2.8-.2-4.9s2.7-3.3,3.7-2.7,1.1,2.8.2,4.9S237.2,118.5,236.1,117.9Z" transform="translate(20.01 80.64)" style="fill:none;stroke:#020202;stroke-miterlimit:3;stroke-width:0.8999999761581421px"/><ellipse cx="232.5" cy="112.18" rx="2.3" ry="1.8" transform="translate(114.12 410.74) rotate(-83.34)" style="fill:none;stroke:#020202;stroke-miterlimit:2.9995534515610003;stroke-width:0.8999559864014027px"/><ellipse cx="235.42" cy="108.05" rx="1.3" ry="1.5" transform="translate(120.74 409.95) rotate(-83.32)" style="fill:none;stroke:#020202;stroke-miterlimit:2.9999579075306912;stroke-width:0.899987348417684px"/><path d="M179.5,91.9c-1.8-2.6-.6-4.7,2.5-4.7h10.1c3.1,0,4.3,2.1,2.5,4.7l-4.4,6.5c-1.8,2.6-4.6,2.6-6.4,0Z" transform="translate(20.01 80.64)" style="fill:none;stroke:#020202;stroke-miterlimit:3;stroke-width:1.7999999523162842px"/><path d="M182.7,87.4c-.7,0-.9.9-.6,2s.9,1.1,1.2,0S183.4,87.4,182.7,87.4Z" transform="translate(20.01 80.64)" style="fill:none;stroke:#020202;stroke-miterlimit:3;stroke-width:0.6000000238418579px"/><path d="M208.4,61l7.5,5.7c4.9-4.6-1.9-13.2-1.9-13.2C213.6,61.9,208.4,61,208.4,61Z" transform="translate(20.01 80.64)" style="fill:#fff;stroke:#020202;stroke-miterlimit:3;stroke-width:1.5px"/><path d="M174.1,51.2s-5.8,7.3-1.6,11.2l6.4-4.8C178.9,57.5,174.5,58.3,174.1,51.2Z" transform="translate(20.01 80.64)" style="fill:#fff;stroke:#020202;stroke-miterlimit:3;stroke-width:1.7999999523162842px"/><path d="M193.6,122.6a5.57,5.57,0,0,1-5.5.9c-1.5-.6-2-1.9-1-2.9a3.35,3.35,0,0,1,3.5-.5c1,.4,1.3,1.2.7,1.9a2.32,2.32,0,0,1-2.3.4c-.6-.3-.8-.8-.4-1.2a1.55,1.55,0,0,1,1.5-.2c.4.2.5.5.3.8a.74.74,0,0,1-.9.1c-.3-.1-.3-.3-.2-.5" transform="translate(20.01 80.64)" style="fill:none;stroke:#020202;stroke-miterlimit:3;stroke-width:1.2000000476837158px"/><path d="M182.7,96.4c1.7-4.3,8.7.4,8.7.4C186.5,104.5,182.7,96.4,182.7,96.4Z" transform="translate(20.01 80.64)" style="fill:#fff;stroke:#020202;stroke-miterlimit:3;stroke-width:1.2000000476837158px"/><path d="M181,124.4s8.1,4.8,27.1,2.5" transform="translate(20.01 80.64)" style="fill:#fff;stroke:#020202;stroke-miterlimit:3;stroke-width:1.2000000476837158px"/><g id="mask"><path d="M178,91.69" transform="translate(20.01 80.64)" style="fill:none;stroke:#010101;stroke-miterlimit:10;stroke-width:2.5px"/><ellipse cx="212.52" cy="160.63" rx="25.29" ry="27.19" style="fill:#fff;stroke:#010101;stroke-miterlimit:10;stroke-width:2.5px"/><circle cx="205.57" cy="142.93" r="2.53" style="stroke:#010101;stroke-miterlimit:10"/><circle cx="201.57" cy="148.93" r="2.53" style="stroke:#010101;stroke-miterlimit:10"/><circle cx="210.57" cy="151.93" r="2.53" style="stroke:#010101;stroke-miterlimit:10"/><circle cx="220.57" cy="151.93" r="2.53" style="stroke:#010101;stroke-miterlimit:10"/><circle cx="220.57" cy="144.93" r="2.53" style="stroke:#010101;stroke-miterlimit:10"/><path d="M173.84,74.15c1.39-1,5-.26,7.94,1.55s2.46,5.29-1.16,7.74-7.19,1.75-7.94-1.55S172.46,75.11,173.84,74.15Z" transform="translate(20.01 80.64)"/><path d="M173.84,74.15c1.39-1,5-.26,7.94,1.55s2.46,5.29-1.16,7.74-7.19,1.75-7.94-1.55S172.46,75.11,173.84,74.15Z" transform="translate(20.01 80.64)" style="fill:none;stroke:#010101;stroke-miterlimit:10"/><path d="M202.81,78.62c-1.23-1.31-5.12-1.38-8.64-.16s-3.75,5-.52,8.35,7.12,3.44,8.64.16S204.05,79.93,202.81,78.62Z" transform="translate(20.01 80.64)"/><path d="M202.81,78.62c-1.23-1.31-5.12-1.38-8.64-.16s-3.75,5-.52,8.35,7.12,3.44,8.64.16S204.05,79.93,202.81,78.62Z" transform="translate(20.01 80.64)" style="fill:none;stroke:#010101;stroke-miterlimit:10"/><polyline points="205.25 154.62 208.46 156.52 214.73 155.89" style="fill:none;stroke:#010101;stroke-miterlimit:10"/><circle cx="200.57" cy="170.93" r="2.53" style="stroke:#010101;stroke-miterlimit:10"/><ellipse cx="201.15" cy="178.59" rx="2.11" ry="2.19" style="stroke:#010101;stroke-miterlimit:10"/><circle cx="211.57" cy="180.93" r="2.53" style="stroke:#010101;stroke-miterlimit:10"/><circle cx="211.57" cy="172.93" r="2.53" style="stroke:#010101;stroke-miterlimit:10"/><path d="M214.25,79.43l8.67-5.12.79,3.54-8.8,6.31S216.22,81.4,214.25,79.43Z" transform="translate(20.01 80.64)" style="stroke:#010101;stroke-miterlimit:10"/></g><g id="PAWHAND"><circle cx="222.81" cy="187.74" r="9.7" style="fill:#fff;stroke:#020202;stroke-miterlimit:3;stroke-width:2.4000000953674316px"/><path d="M200.5,112.1c-2.1-1.6-1.8-3.5.7-4.2l3.2-.9c2.5-.7,3.7.6,2.5,3l-.4.8a3.82,3.82,0,0,1-5.9,1.5Z" transform="translate(20.01 80.64)" style="fill:#fff"/><path d="M200.5,112.1c-2.1-1.6-1.8-3.5.7-4.2l3.2-.9c2.5-.7,3.7.6,2.5,3l-.4.8a3.82,3.82,0,0,1-5.9,1.5Z" transform="translate(20.01 80.64)" style="fill:none;stroke:#020202;stroke-miterlimit:3;stroke-width:1.2000000476837158px"/><circle cx="216.91" cy="186.54" r="1.4" style="fill:#fff;stroke:#020202;stroke-miterlimit:3;stroke-width:0.75px"/><circle cx="221.41" cy="182.94" r="1.4" style="fill:#fff;stroke:#020202;stroke-miterlimit:3;stroke-width:0.75px"/><circle cx="226.31" cy="184.24" r="1.4" style="fill:#fff;stroke:#020202;stroke-miterlimit:3;stroke-width:0.75px"/></g><path d="M193.6,121.4a45.52,45.52,0,0,0,17.7-1.4" transform="translate(20.01 80.64)" style="fill:#fff;stroke:#020202;stroke-miterlimit:3;stroke-width:1.2000000476837158px"/><path d="M178.9,117.9s1.7,2.2,6.7,2.1" transform="translate(20.01 80.64)" style="fill:#fff;stroke:#020202;stroke-miterlimit:3;stroke-width:1.2000000476837158px"/><path d="M214,123s3.4,2.2,2.2-1.2" transform="translate(20.01 80.64)" style="fill:none;stroke:#010101;stroke-miterlimit:3;stroke-width:0.6000000238418579px"/><path d="M217,122.1s3.4,2.2,2.2-1.2" transform="translate(20.01 80.64)" style="fill:none;stroke:#010101;stroke-miterlimit:3;stroke-width:0.6000000238418579px"/><path d="M216.7,124.2s3.4,2.2,2.2-1.2" transform="translate(20.01 80.64)" style="fill:none;stroke:#010101;stroke-miterlimit:3;stroke-width:0.6000000238418579px"/><g id="PAWHAND-2" data-name="PAWHAND"><circle cx="190.31" cy="187.64" r="9.7" style="fill:#fff;stroke:#020202;stroke-miterlimit:3;stroke-width:2.4000000953674316px"/><path d="M166.7,111.2c-1.6-2.1-.7-3.9,1.9-3.8h3.3c2.6,0,3.4,1.6,1.6,3.6l-.6.7a3.85,3.85,0,0,1-6.1-.2Z" transform="translate(20.01 80.64)" style="fill:#fff"/><path d="M166.7,111.2c-1.6-2.1-.7-3.9,1.9-3.8h3.3c2.6,0,3.4,1.6,1.6,3.6l-.6.7a3.85,3.85,0,0,1-6.1-.2Z" transform="translate(20.01 80.64)" style="fill:none;stroke:#020202;stroke-miterlimit:3;stroke-width:1.2000000476837158px"/><circle cx="185.01" cy="184.84" r="1.4" style="fill:#fff;stroke:#020202;stroke-miterlimit:2.9999001026153564;stroke-width:0.75px"/><circle cx="190.31" cy="182.74" r="1.4" style="fill:#fff;stroke:#020202;stroke-miterlimit:2.9999001026153564;stroke-width:0.75px"/><circle cx="194.71" cy="185.34" r="1.4" style="fill:#fff;stroke:#020202;stroke-miterlimit:3;stroke-width:0.75px"/></g></g></g><g id="mountains"><path d="M344.7,90.2l33.5,57.1H275.8l28.7-56.5" transform="translate(20.01 80.64)" style="fill:#fff;stroke:#000;stroke-miterlimit:1.1369999647140503;stroke-width:4px"/><ellipse cx="345.21" cy="170.84" rx="20.5" ry="4.8" style="fill:none;stroke:#020202;stroke-miterlimit:3;stroke-width:3px"/><path d="M314.1,94a2.09,2.09,0,0,1-.4.6s6.3-2.4,7.8.9" transform="translate(20.01 80.64)" style="fill:#fff;stroke:#020202;stroke-miterlimit:3;stroke-width:2px"/><ellipse cx="344.41" cy="170.84" rx="20.7" ry="5.8" style="stroke:#020202;stroke-miterlimit:3"/><path d="M321.5,95.5a4.78,4.78,0,0,1,.4,1.8c0,5.8-11.3,54.9-28.2,50.3l34-1s23.9,10.9,11.5-53c0,0-16.8-12.6-25.2.4" transform="translate(20.01 80.64)" style="fill:#fff;stroke:#020202;stroke-miterlimit:3;stroke-width:3px"/><circle cx="355.81" cy="140.44" r="5.2" style="fill:none;stroke:#020202;stroke-miterlimit:3;stroke-width:2px"/><circle cx="361.81" cy="149.94" r="3.4" style="fill:none;stroke:#020202;stroke-miterlimit:3;stroke-width:2px"/><circle cx="355.41" cy="159.54" r="2.3" style="fill:none;stroke:#020202;stroke-miterlimit:3;stroke-width:2px"/><path d="M333.5,56.5l.6.6s-1.8,1.6-1.8,2.3A4.71,4.71,0,0,1,333.5,56.5Z" transform="translate(20.01 80.64)" style="fill:none;stroke:#020202;stroke-miterlimit:3;stroke-width:0.5px"/><path d="M334,57.9l.4.4s-1.1.9-1,1.3S333.1,58.8,334,57.9Z" transform="translate(20.01 80.64)" style="fill:none;stroke:#020202;stroke-miterlimit:3;stroke-width:0.5px"/><line x1="345.11" y1="147.34" x2="346.71" y2="148.84" style="fill:none;stroke:#020202;stroke-miterlimit:3;stroke-width:2px"/><line x1="350.21" y1="147.34" x2="348.61" y2="148.84" style="fill:none;stroke:#020202;stroke-miterlimit:3;stroke-width:2px"/><line x1="345.21" y1="152.34" x2="346.61" y2="150.74" style="fill:none;stroke:#020202;stroke-miterlimit:3;stroke-width:2px"/><line x1="348.61" y1="150.74" x2="350.21" y2="152.34" style="fill:none;stroke:#020202;stroke-miterlimit:3;stroke-width:2px"/><line x1="358.01" y1="157.14" x2="359.61" y2="158.64" style="fill:none;stroke:#020202;stroke-miterlimit:3;stroke-width:2px"/><line x1="363.11" y1="157.14" x2="361.51" y2="158.64" style="fill:none;stroke:#020202;stroke-miterlimit:3;stroke-width:2px"/><line x1="358.11" y1="162.14" x2="359.51" y2="160.44" style="fill:none;stroke:#020202;stroke-miterlimit:3;stroke-width:2px"/><line x1="361.51" y1="160.54" x2="363.11" y2="162.04" style="fill:none;stroke:#020202;stroke-miterlimit:3;stroke-width:2px"/></g><line x1="15.71" y1="229.84" x2="415.81" y2="229.64" style="fill:none;stroke:#000;stroke-miterlimit:10;stroke-width:4px"/><ellipse id="lfoot-2" data-name="lfoot" cx="214" cy="138.2" rx="13.5" ry="9.4" transform="translate(7.17 102.91) rotate(-5.79)" style="fill:#fff;stroke:#010101;stroke-miterlimit:2.999979939676831;stroke-width:2.399984047108259px"/><circle cx="219.01" cy="180.24" r="68.1" style="fill:none;stroke:#010101;stroke-miterlimit:3;stroke-width:5px"/><path d="M145.6,161.5l116.6,1.2c15.4.2,40.2,3.6,55,7.6l75.5,20.3" transform="translate(20.01 80.64)" style="fill:none;stroke:#020202;stroke-miterlimit:3;stroke-width:2px"/><g id="CLOUD1"><path d="M144,135.3a38.23,38.23,0,0,1,10.4,6.8c2.2,2.2-1.2,5.7-7.3,7.7s-14.8,2.6-19.3,1.4-7.2-4.9-5.9-8.1,5.3-6.9,9-8.2A21,21,0,0,1,144,135.3Z" transform="translate(20.01 80.64)" style="fill:#fff"/><path d="M140.4,134.9s-11.4,3.2-1.1,11.5c0,0,6.6,1.1,9.3-4.9,0,0,1.9-6-2.2-9.8,0,0-4.3-3.3-8.2-3,0,0-7,.9-8.8,6.8,0,0-7.9-4.9-8.8,4.7,0,0,2.8-.9,3.6.6" transform="translate(20.01 80.64)" style="fill:#fff"/><path d="M140.4,134.9s-11.4,3.2-1.1,11.5c0,0,6.6,1.1,9.3-4.9,0,0,1.9-6-2.2-9.8,0,0-4.3-3.3-8.2-3,0,0-7,.9-8.8,6.8,0,0-7.9-4.9-8.8,4.7,0,0,2.8-.9,3.6.6" transform="translate(20.01 80.64)" style="fill:none;stroke:#010101;stroke-miterlimit:10;stroke-width:2.5px"/><path d="M124.7,140.4s-6.6-.1-8.1,4" transform="translate(20.01 80.64)" style="fill:#fff"/><path d="M124.7,140.4s-6.6-.1-8.1,4" transform="translate(20.01 80.64)" style="fill:none;stroke:#010101;stroke-miterlimit:10;stroke-width:2px"/><path d="M119.2,153.8" transform="translate(20.01 80.64)" style="fill:#fff"/><path d="M119.2,153.8" transform="translate(20.01 80.64)" style="fill:none;stroke:#010101;stroke-miterlimit:10;stroke-width:2px"/><path d="M111.7,152.1" transform="translate(20.01 80.64)" style="fill:#fff"/><path d="M111.7,152.1" transform="translate(20.01 80.64)" style="fill:none;stroke:#010101;stroke-miterlimit:10;stroke-width:2px"/><path d="M158.8,144.7a5.2,5.2,0,0,1,3.5-.6s3.4.8,3.5,2.8a11.63,11.63,0,0,1,6.1.3s4.1,2.2,4.7,4.1a13,13,0,0,1-2.9-.8s-4.1-1.3-6.1,1.2a12.22,12.22,0,0,1-3.7,2.8s-3.9,4.9-7.8,1.7c0,0-5,3-8.1-1.8a5.57,5.57,0,0,1-2-1.4s-5.7,8.6-12.8.8" transform="translate(20.01 80.64)" style="fill:#fff"/><path d="M158.8,144.7a5.2,5.2,0,0,1,3.5-.6s3.4.8,3.5,2.8a11.63,11.63,0,0,1,6.1.3s4.1,2.2,4.7,4.1a13,13,0,0,1-2.9-.8s-4.1-1.3-6.1,1.2a12.22,12.22,0,0,1-3.7,2.8s-3.9,4.9-7.8,1.7c0,0-5,3-8.1-1.8a5.57,5.57,0,0,1-2-1.4s-5.7,8.6-12.8.8" transform="translate(20.01 80.64)" style="fill:none;stroke:#010101;stroke-miterlimit:10;stroke-width:2px"/><path d="M122.9,150.5" transform="translate(20.01 80.64)" style="fill:#fff"/><path d="M122.9,150.5" transform="translate(20.01 80.64)" style="fill:none;stroke:#010101;stroke-miterlimit:10;stroke-width:2px"/><path d="M149.6,141.2a6.43,6.43,0,0,1,5.1.3s2.8,1.5,3,2.6c0,0,1.7,2.3.9,3.5a5.51,5.51,0,0,1-1.6,4,5.46,5.46,0,0,1-5.3,1.1,4.46,4.46,0,0,1-2.8-4.4,3.27,3.27,0,0,1,3.4-3.6s2.3-.3,3.2,2.7" transform="translate(20.01 80.64)" style="fill:#fff"/><path d="M149.6,141.2a6.43,6.43,0,0,1,5.1.3s2.8,1.5,3,2.6c0,0,1.7,2.3.9,3.5a5.51,5.51,0,0,1-1.6,4,5.46,5.46,0,0,1-5.3,1.1,4.46,4.46,0,0,1-2.8-4.4,3.27,3.27,0,0,1,3.4-3.6s2.3-.3,3.2,2.7" transform="translate(20.01 80.64)" style="fill:none;stroke:#010101;stroke-miterlimit:10;stroke-width:2.5px"/><path d="M132.4,149s.2,2.1-1.1,2.2a2.76,2.76,0,0,1-4.1-1.7,5.84,5.84,0,0,1,.5-3.3s.5-1.2,3.5-1.4a4.08,4.08,0,0,1,3.6,2.2s1.2,1.4.3,4.1c0,0-.9,2.5-2.2,3.3,0,0-3.9,1.8-6.5,1.5,0,0-2.2-.5-2-1.4,0,0-2.1.8-2.9-.2a7.9,7.9,0,0,1-4-3.4s-.9-.9-.5-4.9c0,0,0-2,3.5-4.5a9.21,9.21,0,0,1,3.7-1" transform="translate(20.01 80.64)" style="fill:#fff"/><path d="M132.4,149s.2,2.1-1.1,2.2a2.76,2.76,0,0,1-4.1-1.7,5.84,5.84,0,0,1,.5-3.3s.5-1.2,3.5-1.4a4.08,4.08,0,0,1,3.6,2.2s1.2,1.4.3,4.1c0,0-.9,2.5-2.2,3.3,0,0-3.9,1.8-6.5,1.5,0,0-2.2-.5-2-1.4,0,0-2.1.8-2.9-.2a7.9,7.9,0,0,1-4-3.4s-.9-.9-.5-4.9c0,0,0-2,3.5-4.5a9.21,9.21,0,0,1,3.7-1" transform="translate(20.01 80.64)" style="fill:none;stroke:#010101;stroke-miterlimit:10;stroke-width:2px"/></g><g id="CLOUD2"><path d="M202.3,133.3c-7.7,2.5-17.8,7.5-22.3,11.3s2.5,9.5,15.7,12.8,31.9,4.4,41.6,2.3,15.4-8.1,12.7-13.4-11.4-11.5-19.3-13.6S210.1,130.8,202.3,133.3Z" transform="translate(20.01 80.64)" style="fill:#fff"/><path d="M210.1,132.7s24.5,5.2,2.4,19.1c0,0-14.3,1.8-20.1-8.1,0,0-4.1-9.9,4.8-16.2,0,0,9.2-5.5,17.7-5,0,0,15,1.6,19.1,11.2,0,0,17-8.1,19.1,7.8,0,0-6.1-1.6-7.8,1" transform="translate(20.01 80.64)" style="fill:#fff"/><path d="M210.1,132.7s24.5,5.2,2.4,19.1c0,0-14.3,1.8-20.1-8.1,0,0-4.1-9.9,4.8-16.2,0,0,9.2-5.5,17.7-5,0,0,15,1.6,19.1,11.2,0,0,17-8.1,19.1,7.8,0,0-6.1-1.6-7.8,1" transform="translate(20.01 80.64)" style="fill:none;stroke:#010101;stroke-miterlimit:10;stroke-width:3px"/><path d="M243.8,141.7s14.2-.1,17.4,6.6" transform="translate(20.01 80.64)" style="fill:#fff"/><path d="M243.8,141.7s14.2-.1,17.4,6.6" transform="translate(20.01 80.64)" style="fill:none;stroke:#010101;stroke-miterlimit:10;stroke-width:2px"/><path d="M255.7,163.9" transform="translate(20.01 80.64)" style="fill:#fff"/><path d="M255.7,163.9" transform="translate(20.01 80.64)" style="fill:none;stroke:#010101;stroke-miterlimit:10;stroke-width:2px"/><path d="M271.8,161.1" transform="translate(20.01 80.64)" style="fill:#fff"/><path d="M271.8,161.1" transform="translate(20.01 80.64)" style="fill:none;stroke:#010101;stroke-miterlimit:10;stroke-width:2px"/><path d="M170.5,148.8a13.33,13.33,0,0,0-7.6-1s-7.4,1.3-7.6,4.6c0,0-7.2-1.3-13.2.6,0,0-8.9,3.7-10.2,6.8a29.33,29.33,0,0,0,6.3-1.3s8.9-2.1,13.2,2c0,0,4.3,3.7,8,4.7,0,0,8.4,8.1,16.7,2.9,0,0,10.8,5,17.4-3a13.38,13.38,0,0,0,4.3-2.3s12.2,14.3,27.5,1.3" transform="translate(20.01 80.64)" style="fill:#fff"/><path d="M170.5,148.8a13.33,13.33,0,0,0-7.6-1s-7.4,1.3-7.6,4.6c0,0-7.2-1.3-13.2.6,0,0-8.9,3.7-10.2,6.8a29.33,29.33,0,0,0,6.3-1.3s8.9-2.1,13.2,2c0,0,4.3,3.7,8,4.7,0,0,8.4,8.1,16.7,2.9,0,0,10.8,5,17.4-3a13.38,13.38,0,0,0,4.3-2.3s12.2,14.3,27.5,1.3" transform="translate(20.01 80.64)" style="fill:none;stroke:#010101;stroke-miterlimit:10;stroke-width:3px"/><path d="M247.9,158.5" transform="translate(20.01 80.64)" style="fill:#fff"/><path d="M247.9,158.5" transform="translate(20.01 80.64)" style="fill:none;stroke:#010101;stroke-miterlimit:10;stroke-width:2px"/><path d="M190.2,143.1s-4.3-1.7-11,.4c0,0-6.1,2.4-6.5,4.3,0,0-3.7,3.8-1.9,5.8,0,0-.4,3.4,3.3,6.7,0,0,4.1,3.3,11.3,1.9,0,0,6.7-2,5.9-7.3,0,0,.7-5.8-7.4-6a6.7,6.7,0,0,0-6.9,4.4" transform="translate(20.01 80.64)" style="fill:#fff"/><path d="M190.2,143.1s-4.3-1.7-11,.4c0,0-6.1,2.4-6.5,4.3,0,0-3.7,3.8-1.9,5.8,0,0-.4,3.4,3.3,6.7,0,0,4.1,3.3,11.3,1.9,0,0,6.7-2,5.9-7.3,0,0,.7-5.8-7.4-6a6.7,6.7,0,0,0-6.9,4.4" transform="translate(20.01 80.64)" style="fill:none;stroke:#010101;stroke-miterlimit:10;stroke-width:3px"/><path d="M227.3,156s-.4,3.4,2.4,3.6c0,0,6.5,2.7,8.9-2.9a7.12,7.12,0,0,0-1.1-5.4s-1.1-2-7.6-2.3c0,0-5.2-.1-7.8,3.7,0,0-2.6,2.3-.6,6.8,0,0,2,4.1,4.6,5.4,0,0,8.4,3,14.1,2.4,0,0,4.6-.9,4.3-2.3,0,0,4.5,1.3,6.3-.3,0,0,6.1-1.7,8.5-5.7,0,0,2-1.4,1.1-8.1,0,0,0-3.3-7.6-7.4a29.08,29.08,0,0,0-8-1.7" transform="translate(20.01 80.64)" style="fill:#fff"/><path d="M227.3,156s-.4,3.4,2.4,3.6c0,0,6.5,2.7,8.9-2.9a7.12,7.12,0,0,0-1.1-5.4s-1.1-2-7.6-2.3c0,0-5.2-.1-7.8,3.7,0,0-2.6,2.3-.6,6.8,0,0,2,4.1,4.6,5.4,0,0,8.4,3,14.1,2.4,0,0,4.6-.9,4.3-2.3,0,0,4.5,1.3,6.3-.3,0,0,6.1-1.7,8.5-5.7,0,0,2-1.4,1.1-8.1,0,0,0-3.3-7.6-7.4a29.08,29.08,0,0,0-8-1.7" transform="translate(20.01 80.64)" style="fill:none;stroke:#010101;stroke-miterlimit:10;stroke-width:3px"/></g><path d="M256.6,207.9" transform="translate(20.01 80.64)" style="fill:#fff"/><path d="M341.4,213.8a2.67,2.67,0,0,1-.8,1.7c-3.7,3.8-19.5,6.7-38.5,6.7-21.7,0-39.2-3.7-39.2-8.4s17.6-8.4,39.2-8.4S341.4,209.1,341.4,213.8Z" transform="translate(20.01 80.64)" style="stroke:#020202;stroke-miterlimit:10;stroke-width:2px"/><rect x="42.71" y="130.84" width="51.7" height="102.1" style="fill:#fff"/><g id="MOUND"><path d="M89.5,160.3a2.67,2.67,0,0,1-.8,1.7c-3.7,3.8-19.5,6.7-38.5,6.7-21.7,0-39.2-3.7-39.2-8.4s17.6-8.4,39.2-8.4S89.5,155.7,89.5,160.3Z" transform="translate(20.01 80.64)" style="stroke:#020202;stroke-miterlimit:10;stroke-width:4px"/><rect x="42.71" y="130.84" width="51.7" height="116.8" style="fill:#fff"/><path d="M88.8,162.9s.7,9.2,7.6,8.9" transform="translate(20.01 80.64)" style="fill:none;stroke:#020202;stroke-miterlimit:10;stroke-width:3px"/><path d="M11.3,163.9s-1.7,2-3.8,4.4-.4,5.7,3.7,7.2l31.9,11.8a34.82,34.82,0,0,0,15.4,1.4l31-5.4" transform="translate(20.01 80.64)" style="fill:none;stroke:#020202;stroke-miterlimit:10;stroke-width:3px"/></g><path d="M340.7,216.3s.7,9.2,7.6,8.9" transform="translate(20.01 80.64)" style="fill:none;stroke:#020202;stroke-miterlimit:10;stroke-width:2px"/><path d="M262.2,216.3s-.7,9.2-7.6,8.9" transform="translate(20.01 80.64)" style="fill:none;stroke:#020202;stroke-miterlimit:10;stroke-width:2px"/><path d="M294.3,49" transform="translate(20.01 80.64)" style="fill:none;stroke:#000;stroke-miterlimit:1.1369999647140503;stroke-width:2px"/><path d="M104.7,20.1s-.9,22.7-19.6,16.3" transform="translate(20.01 80.64)" style="fill:none;stroke:#020202;stroke-miterlimit:3;stroke-width:3px"/><g id="BOOM"><line x1="96.71" y1="129.84" x2="96.71" y2="244.54" style="fill:none;stroke:#020202;stroke-miterlimit:3;stroke-width:3px"/><line x1="87.71" y1="129.84" x2="87.71" y2="140.24" style="fill:none;stroke:#020202;stroke-miterlimit:3;stroke-width:3px"/><line x1="78.71" y1="140.24" x2="78.71" y2="181.94" style="fill:none;stroke:#020202;stroke-miterlimit:3;stroke-width:3px"/><line x1="69.71" y1="202.84" x2="69.71" y2="223.74" style="fill:none;stroke:#020202;stroke-miterlimit:3;stroke-width:3px"/><line x1="60.71" y1="223.74" x2="60.71" y2="234.14" style="fill:none;stroke:#020202;stroke-miterlimit:3;stroke-width:3px"/><line x1="78.71" y1="223.74" x2="78.71" y2="234.14" style="fill:none;stroke:#020202;stroke-miterlimit:3;stroke-width:3px"/><polyline points="42.71 129.84 42.71 155.64 42.71 244.54" style="fill:none;stroke:#020202;stroke-miterlimit:3;stroke-width:3px"/></g><g id="SMOKE"><path d="M114.7,3.9s.8,14.3-9.6,18.8a20.23,20.23,0,0,1-10,1.2" transform="translate(20.01 80.64)" style="fill:none;stroke:#020202;stroke-miterlimit:3;stroke-width:3px"/><path d="M88,36.6S74.3,50.8,61,33.8" transform="translate(20.01 80.64)" style="fill:none;stroke:#020202;stroke-miterlimit:3;stroke-width:3px"/><path d="M-18.5,22.9s-.8,14.3,9.6,18.8a20.23,20.23,0,0,0,10,1.2" transform="translate(20.01 80.64)" style="fill:none;stroke:#020202;stroke-miterlimit:3;stroke-width:3px"/><path d="M-8.5,39.2s.9,22.7,19.6,16.3" transform="translate(20.01 80.64)" style="fill:none;stroke:#020202;stroke-miterlimit:3;stroke-width:3px"/><path d="M8.2,55.7s13.7,14.2,27-2.8" transform="translate(20.01 80.64)" style="fill:none;stroke:#020202;stroke-miterlimit:3;stroke-width:3px"/></g><g id="RING"><path d="M19.7,73.4h-5A5.14,5.14,0,0,0,9.5,78c-.1,2.5-4.2,4.7-9.3,4.7s-9.1,2.8-9,6,4.1,5.8,9,5.8,8.9,2.7,8.9,6,17.1,5.9,37.9,5.8,37.8-2.7,37.8-5.8,2.8-5.8,6.4-6,6.4-3.9,6.1-8.4S93.7,78,89.9,78s-7.1-2.9-7.2-6.2c-.2-2.9-2.7-5.5-6-6.3" transform="translate(20.01 80.64)" style="fill:none;stroke:#020202;stroke-miterlimit:3;stroke-width:3px"/><path d="M26.6,77.1H23a3.56,3.56,0,0,0-3.7,3.3c-.1,1.8-3,3.3-6.6,3.4s-6.5,2-6.4,4.3,3,4.2,6.4,4.2S19,94.2,19,96.6s12.2,4.2,27.1,4.2,27.1-1.9,27-4.2,2-4.2,4.6-4.3,4.6-2.8,4.4-6-2.5-5.8-5.3-5.9" transform="translate(20.01 80.64)" style="fill:none;stroke:#020202;stroke-miterlimit:3;stroke-width:3px"/></g><path d="M31.1,113.7H27.5a3.55,3.55,0,0,0-3.7,3c-.1,1.7-3,3.1-6.6,3.1s-6.4,1.8-6.4,4,2.9,3.9,6.4,3.9,6.3,1.8,6.3,4,12.1,3.9,26.9,3.9,26.8-1.8,26.8-3.9,2-3.9,4.5-4,4.5-2.6,4.3-5.5-2.5-5.4-5.2-5.4-5-1.9-5.1-4.1-2.5-4.1-5.2-4.3-5-.3-5-.3" transform="translate(20.01 80.64)" style="fill:none;stroke:#020202;stroke-miterlimit:3;stroke-width:3px"/><path d="M200.8,327.8" transform="translate(20.01 80.64)" style="fill:none;stroke:#020202;stroke-miterlimit:3;stroke-width:3px"/><g id="ESS"><path d="M243.6,31.9s28.5.9,10.7-10.3,29.4-9.3,29.4-9.3" transform="translate(20.01 80.64)" style="fill:#fff;stroke:#010101;stroke-miterlimit:10;stroke-width:3px"/><path d="M273.6,51.9s28.5.9,10.7-10.3,29.4-9.3,29.4-9.3" transform="translate(20.01 80.64)" style="fill:#fff;stroke:#010101;stroke-miterlimit:10;stroke-width:3px"/><path d="M283.6,84.9s28.5.9,10.7-10.3,29.4-9.3,29.4-9.3" transform="translate(20.01 80.64)" style="fill:#fff;stroke:#010101;stroke-miterlimit:10;stroke-width:3px"/></g><line id="r1" x1="243.51" y1="98.54" x2="264.11" y2="63.94" style="fill:none;stroke:#010101;stroke-miterlimit:10;stroke-width:3px"/><line id="r2" x1="216.91" y1="96.14" x2="219.31" y2="0.04" style="fill:none;stroke:#010101;stroke-miterlimit:10;stroke-width:3px"/><line id="r3" x1="186.11" y1="98.54" x2="165.51" y2="63.94" style="fill:none;stroke:#010101;stroke-miterlimit:10;stroke-width:3px"/><path d="M328.9,103.3s4.7-7.3,8.7,0" transform="translate(20.01 80.64)" style="fill:none;stroke:#020202;stroke-miterlimit:3;stroke-width:3px"/><line x1="51.71" y1="146.64" x2="60.71" y2="146.64" style="fill:none;stroke:#020202;stroke-miterlimit:3;stroke-width:3px"/><g id="Layer_3" data-name="Layer 3"><text transform="translate(83.87 259.74) scale(1.14 1)" style="isolation:isolate;font-size:96.17060089111328px;font-family:HighJinks, High Jinks"> </text><g style="isolation:isolate"><path d="M90.7,277.4V237.6l-26.8-8.1V214.6l42.9,12.7v61.1L63.9,299.2V237.6L80,242.3V280Z" transform="translate(20.01 80.64)"/><path d="M155.1,228.8v14.1H128.3v17.3l26.8-11.1v15.6l-26.8,11.1v4.7h26.8v14.1H112.2V228.9h42.9Z" transform="translate(20.01 80.64)"/><path d="M160.5,294.5V230.9l42.9-15.5v13.4h26.8v65.7H214.1V242.8H203.4v51.7H187.3V235.3l-10.7,2.8v56.4Z" transform="translate(20.01 80.64)"/><path d="M278.5,228.8v65.7H235.6V228.8Zm-16.1,51.6V242.8H251.7v37.6Z" transform="translate(20.01 80.64)"/><path d="M310.7,228.8h16.1v65.7H310.7V252.2L300,247.7v46.7H283.9V228.7H300v3.4l10.7,4.5Z" transform="translate(20.01 80.64)"/></g><g id="CLOUD5"><path d="M307.6,268.9c-4.8,2-11,6.1-13.8,9.1s1.6,7.7,9.7,10.3,19.7,3.5,25.7,1.9,9.5-6.5,7.8-10.8-7.1-9.2-11.9-10.9S312.4,266.9,307.6,268.9Z" transform="translate(20.01 80.64)" style="fill:#fff"/><path d="M312.4,268.4s15.2,4.2,1.5,15.4c0,0-8.8,1.5-12.4-6.5,0,0-2.5-8,2.9-13.1,0,0,5.7-4.4,11-4,0,0,9.3,1.3,11.8,9.1,0,0,10.5-6.5,11.8,6.3,0,0-3.8-1.3-4.8.8" transform="translate(20.01 80.64)" style="fill:#fff"/><path d="M312.4,268.4s15.2,4.2,1.5,15.4c0,0-8.8,1.5-12.4-6.5,0,0-2.5-8,2.9-13.1,0,0,5.7-4.4,11-4,0,0,9.3,1.3,11.8,9.1,0,0,10.5-6.5,11.8,6.3,0,0-3.8-1.3-4.8.8" transform="translate(20.01 80.64)" style="fill:none;stroke:#010101;stroke-miterlimit:10;stroke-width:2px"/><path d="M333.2,275.7s8.8-.1,10.8,5.3" transform="translate(20.01 80.64)" style="fill:#fff"/><path d="M333.2,275.7s8.8-.1,10.8,5.3" transform="translate(20.01 80.64)" style="fill:none;stroke:#010101;stroke-miterlimit:10;stroke-width:2px"/><path d="M340.6,293.6" transform="translate(20.01 80.64)" style="fill:#fff"/><path d="M340.6,293.6" transform="translate(20.01 80.64)" style="fill:none;stroke:#010101;stroke-miterlimit:10;stroke-width:2px"/><path d="M350.6,291.3" transform="translate(20.01 80.64)" style="fill:#fff"/><path d="M350.6,291.3" transform="translate(20.01 80.64)" style="fill:none;stroke:#010101;stroke-miterlimit:10;stroke-width:2px"/><path d="M287.9,281.4a6.52,6.52,0,0,0-4.7-.8s-4.6,1-4.7,3.7a15.88,15.88,0,0,0-8.2.5s-5.5,3-6.3,5.5a15.1,15.1,0,0,0,3.9-1s5.5-1.7,8.2,1.6c0,0,2.6,3,4.9,3.8,0,0,5.2,6.5,10.3,2.3,0,0,6.7,4,10.8-2.4a8,8,0,0,0,2.6-1.8s7.6,11.5,17,1" transform="translate(20.01 80.64)" style="fill:#fff"/><path d="M287.9,281.4a6.52,6.52,0,0,0-4.7-.8s-4.6,1-4.7,3.7a15.88,15.88,0,0,0-8.2.5s-5.5,3-6.3,5.5a15.1,15.1,0,0,0,3.9-1s5.5-1.7,8.2,1.6c0,0,2.6,3,4.9,3.8,0,0,5.2,6.5,10.3,2.3,0,0,6.7,4,10.8-2.4a8,8,0,0,0,2.6-1.8s7.6,11.5,17,1" transform="translate(20.01 80.64)" style="fill:none;stroke:#010101;stroke-miterlimit:10;stroke-width:2px"/><path d="M335.7,289.2" transform="translate(20.01 80.64)" style="fill:#fff"/><path d="M335.7,289.2" transform="translate(20.01 80.64)" style="fill:none;stroke:#010101;stroke-miterlimit:10;stroke-width:2px"/><path d="M300,276.8s-2.6-1.4-6.8.3c0,0-3.8,2-4,3.4,0,0-2.3,3.1-1.1,4.7a8,8,0,0,0,2.1,5.4,7.39,7.39,0,0,0,7,1.5s4.1-1.6,3.7-5.9a4.3,4.3,0,0,0-4.6-4.8s-3.1-.5-4.2,3.6" transform="translate(20.01 80.64)" style="fill:#fff"/><path d="M300,276.8s-2.6-1.4-6.8.3c0,0-3.8,2-4,3.4,0,0-2.3,3.1-1.1,4.7a8,8,0,0,0,2.1,5.4,7.39,7.39,0,0,0,7,1.5s4.1-1.6,3.7-5.9a4.3,4.3,0,0,0-4.6-4.8s-3.1-.5-4.2,3.6" transform="translate(20.01 80.64)" style="fill:none;stroke:#010101;stroke-miterlimit:10;stroke-width:2px"/><path d="M323,287.2s-.2,2.8,1.5,2.9c0,0,4,2.2,5.5-2.3a6.8,6.8,0,0,0-.7-4.4s-.7-1.6-4.7-1.8a5.5,5.5,0,0,0-4.8,3s-1.6,1.8-.3,5.5c0,0,1.3,3.3,2.9,4.4,0,0,5.2,2.4,8.7,2,0,0,2.9-.7,2.6-1.8,0,0,2.8,1,3.9-.2,0,0,3.8-1.4,5.3-4.6,0,0,1.3-1.1.7-6.5,0,0,0-2.6-4.7-6A16.25,16.25,0,0,0,334,276" transform="translate(20.01 80.64)" style="fill:#fff"/><path d="M323,287.2s-.2,2.8,1.5,2.9c0,0,4,2.2,5.5-2.3a6.8,6.8,0,0,0-.7-4.4s-.7-1.6-4.7-1.8a5.5,5.5,0,0,0-4.8,3s-1.6,1.8-.3,5.5c0,0,1.3,3.3,2.9,4.4,0,0,5.2,2.4,8.7,2,0,0,2.9-.7,2.6-1.8,0,0,2.8,1,3.9-.2,0,0,3.8-1.4,5.3-4.6,0,0,1.3-1.1.7-6.5,0,0,0-2.6-4.7-6A16.25,16.25,0,0,0,334,276" transform="translate(20.01 80.64)" style="fill:none;stroke:#010101;stroke-miterlimit:10;stroke-width:2px"/></g><g id="LAST"><path d="M168.2,252.9c-2.8,0-5.1.8-5.1,2s1.8,2,4,2,4,2.5,4,5.6a5.81,5.81,0,0,0,6,5.6c3.3,0,5.9,1.5,5.8,3.3s3.2,3.3,7.2,3.2,7.2-1.6,7.1-3.5,3-3.5,6.9-3.6,7-3,7-6.4,2.1-6.2,4.7-6.2,4.7-1.8,4.6-3.9-3.8-3.8-8.3-3.8-8.2.7-8.2,1.5,2.7,1.3,5.9,1.2,5.8.3,5.8,1.1-1.8,1.4-3.8,1.4-3.8,2.6-3.9,5.8-3.1,5.8-6.8,5.8-6.7,1.4-6.7,3-1.9,2.9-4.3,2.9-4.3-1.3-4.3-2.9-2.8-2.9-6.1-3-6.1-2.6-6.2-5.6A5.81,5.81,0,0,0,168.2,252.9Z" transform="translate(20.01 80.64)" style="fill:#fff"/><path d="M168.2,252.9c-2.8,0-5.1.8-5.1,2s1.8,2,4,2,4,2.5,4,5.6a5.81,5.81,0,0,0,6,5.6c3.3,0,5.9,1.5,5.8,3.3s3.2,3.3,7.2,3.2,7.2-1.6,7.1-3.5,3-3.5,6.9-3.6,7-3,7-6.4,2.1-6.2,4.7-6.2,4.7-1.8,4.6-3.9-3.8-3.8-8.3-3.8-8.2.7-8.2,1.5,2.7,1.3,5.9,1.2,5.8.3,5.8,1.1-1.8,1.4-3.8,1.4-3.8,2.6-3.9,5.8-3.1,5.8-6.8,5.8-6.7,1.4-6.7,3-1.9,2.9-4.3,2.9-4.3-1.3-4.3-2.9-2.8-2.9-6.1-3-6.1-2.6-6.2-5.6A5.81,5.81,0,0,0,168.2,252.9Z" transform="translate(20.01 80.64)" style="fill:none;stroke:#020202;stroke-miterlimit:3;stroke-width:2px"/></g><g id="SKULL"><path d="M149.3,247.4s6.6,18.9,25.2,3.6S157.3,203.7,149.3,247.4Z" transform="translate(20.01 80.64)" style="fill:#fff"/><path d="M149.3,247.4s6.6,18.9,25.2,3.6S157.3,203.7,149.3,247.4Z" transform="translate(20.01 80.64)" style="fill:none;stroke:#020202;stroke-miterlimit:3;stroke-width:2px"/><ellipse cx="188.11" cy="326.14" rx="3.8" ry="6.9" style="fill:none;stroke:#020202;stroke-miterlimit:3;stroke-width:2px"/><ellipse cx="176.11" cy="325.04" rx="3.1" ry="5.1" style="fill:none;stroke:#020202;stroke-miterlimit:3;stroke-width:2px"/><text transform="translate(179.04 335.13)" style="isolation:isolate;font-size:5px;font-family:Arial-Black, Arial Black;font-weight:800">X</text><polyline points="184.71 306.54 187.01 310.84 183.71 313.74 187.61 316.34" style="fill:none;stroke:#020202;stroke-miterlimit:3"/><line x1="191.21" y1="308.54" x2="187.01" y2="310.84" style="fill:none;stroke:#020202;stroke-miterlimit:3"/></g></g><path d="M106.11,173.26l0,.3a9.45,9.45,0,0,1-1.36,3.92c-.13.19-.28.41-.57.81a7.83,7.83,0,0,0-.8,1.21,3.87,3.87,0,0,0-.39,1.34,5.08,5.08,0,0,0,0,.78,4.3,4.3,0,0,0,1.24,2.52,5.27,5.27,0,0,0,1.7,1.22l.09,0h.74l-.25-.3c-.3-.36-.4-.49-.54-.68a4,4,0,0,1-.64-1.37,1.85,1.85,0,0,1,0-.57,2.13,2.13,0,0,1,.53-1.15l.31-.42a9.35,9.35,0,0,0,1.36-2.5,1,1,0,0,1,.06-.15,3.87,3.87,0,0,1,.44.4,4,4,0,0,1,1.24,2,2.56,2.56,0,0,1,.11.78,5.8,5.8,0,0,1-.24,1.54,14.89,14.89,0,0,1-.72,2c-.08.18-.14.34-.14.34h.48l.19-.14a7.46,7.46,0,0,0,1.79-1.82,5.18,5.18,0,0,0,.87-2.43,5.42,5.42,0,0,0,0-.9,6.93,6.93,0,0,0-1.23-3.2,14,14,0,0,0-3.64-3.53l-.17-.12h-.19Z" transform="translate(20.01 80.64)"/><path d="M21.3,166.9s24,6.8,56.2,0" transform="translate(20.01 80.64)" style="fill:#fff"/><path d="M141.1,219.4V178.2l27.6-10v8.7H186v42.5H175.7V186h-6.9v33.4H158.5V181.1l-6.9,1.8v36.5Z" transform="translate(20.01 80.64)"/><path d="M196.3,186h-6.9v-9.1h24.1V186h-6.9v33.4H196.3V186Z" transform="translate(20.01 80.64)"/><path d="M244.6,176.9v30.4l-2.8,12.1.1.1-24.8,8.6V176.9h10.3v38.3l5.3-2,1.6-6.8V176.9Z" transform="translate(20.01 80.64)"/><path d="M148.7,48" transform="translate(20.01 80.64)" style="fill:none;stroke:#000;stroke-miterlimit:3;stroke-width:4px"/><ellipse cx="144.29" cy="70.36" rx="22.5" ry="6" transform="translate(37.76 249.76) rotate(-63.97)" style="stroke:#000;stroke-miterlimit:2.9999032485250323;stroke-width:3.9998709980333764px"/><path d="M25.59,273h-.35l-.31.22a25.3,25.3,0,0,0-6.62,6.43,12.45,12.45,0,0,0-2.24,5.82,12.68,12.68,0,0,0,0,1.63,9.34,9.34,0,0,0,1.58,4.43,13.29,13.29,0,0,0,3.25,3.31l.35.26h.88l-.26-.62a26.54,26.54,0,0,1-1.31-3.69,10.56,10.56,0,0,1-.44-2.8,4.55,4.55,0,0,1,.2-1.43,7.2,7.2,0,0,1,2.26-3.7,6.07,6.07,0,0,1,.8-.73,2.08,2.08,0,0,1,.11.27,17.59,17.59,0,0,0,1.33,2.84A18.34,18.34,0,0,0,26,286.94l.56.76a4,4,0,0,1,1,2.09,2.84,2.84,0,0,1,0,1,7.15,7.15,0,0,1-1.17,2.49,14.16,14.16,0,0,1-1,1.25l-.45.55H26.2l.16-.05a9.68,9.68,0,0,0,3.1-2.23,7.86,7.86,0,0,0,2.27-4.59,9.63,9.63,0,0,0,0-1.42,6.87,6.87,0,0,0-.71-2.43,12.79,12.79,0,0,0-1.45-2.21c-.53-.72-.81-1.12-1-1.47A17.1,17.1,0,0,1,26,273.59c0-.29-.08-.53-.08-.54S25.81,273,25.59,273Z" transform="translate(20.01 80.64)"/><line x1="50.71" y1="376.44" x2="35.41" y2="375.94" style="fill:none;stroke:#020202;stroke-miterlimit:3;stroke-width:2px"/><path d="M350.72,238.31s0,.25-.08.54a17.1,17.1,0,0,1-2.48,7.14c-.23.35-.51.74-1,1.47a12.79,12.79,0,0,0-1.45,2.21,6.87,6.87,0,0,0-.71,2.43,9.63,9.63,0,0,0,0,1.42,7.8,7.8,0,0,0,2.27,4.59,9.73,9.73,0,0,0,3.1,2.23l.16.05h1.36l-.45-.55a12.8,12.8,0,0,1-1-1.25,7.44,7.44,0,0,1-1.17-2.49,2.84,2.84,0,0,1-.05-1,4,4,0,0,1,1-2.09l.56-.76a18.34,18.34,0,0,0,1.15-1.71,16.78,16.78,0,0,0,1.33-2.84,2.08,2.08,0,0,1,.11-.27,6.07,6.07,0,0,1,.8.73,7.2,7.2,0,0,1,2.26,3.7,4.81,4.81,0,0,1,.2,1.43,10.56,10.56,0,0,1-.44,2.8,26.54,26.54,0,0,1-1.31,3.69c-.14.33-.26.61-.26.62h.88l.35-.26a13.29,13.29,0,0,0,3.25-3.31,9.34,9.34,0,0,0,1.58-4.43,12.68,12.68,0,0,0,0-1.63,12.49,12.49,0,0,0-2.24-5.82,25.46,25.46,0,0,0-6.62-6.43l-.31-.22h-.35Z" transform="translate(20.01 80.64)"/><line x1="365.91" y1="341.74" x2="381.31" y2="341.24" style="fill:none;stroke:#020202;stroke-miterlimit:3;stroke-width:2px"/><path d="M93.2,155.2s4.5,4.1,9.9,9.1,2.9,12.8-5.6,17.3,10.2,17.7,41.7,29.5l117,43.7" transform="translate(20.01 80.64)" style="fill:none;stroke:#010101;stroke-miterlimit:10;stroke-width:2px"/><path d="M110.2,160.1s4.6,4.8,10.2,10.7,5.4,11.5-.4,12.4,14.9,11.8,46.2,24.1l152.6,60.1" transform="translate(20.01 80.64)" style="fill:none;stroke:#010101;stroke-miterlimit:10;stroke-width:2px"/><path d="M125.5,160.1s2.9,2.5,6.3,5.5,3.9,5.7,1,6.1,1,4.3,8.6,8.9,14,8.3,14,8.3" transform="translate(20.01 80.64)" style="fill:none;stroke:#010101;stroke-miterlimit:10;stroke-width:2px"/><path d="M-58,294.8" transform="translate(20.01 80.64)" style="fill:none;stroke:#010101;stroke-miterlimit:10;stroke-width:2px"/><path d="M105,195.2s-4.5,4.1-9.9,9.1-2.9,12.8,5.6,17.3,4.5,12.2-8.9,17.2-24.3,9.1-24.3,9.1" transform="translate(20.01 80.64)" style="fill:none;stroke:#010101;stroke-miterlimit:10;stroke-width:3px"/><path d="M74.6,191.9s-2.9,2.5-6.3,5.5-3.9,5.7-1,6.1-1,4.3-8.6,8.9-14,8.3-14,8.3" transform="translate(20.01 80.64)" style="fill:none;stroke:#010101;stroke-miterlimit:10;stroke-width:3px"/><g id="CLOUD3"><path d="M57.4,197.9c4.8,2,11,6.1,13.8,9.1s-1.6,7.7-9.7,10.3-19.7,3.5-25.7,1.9-9.5-6.5-7.8-10.8,7.1-9.2,11.9-10.9S52.6,195.9,57.4,197.9Z" transform="translate(20.01 80.64)" style="fill:#fff"/><path d="M52.6,197.4s-15.2,4.2-1.5,15.4c0,0,8.8,1.5,12.4-6.5,0,0,2.5-8-2.9-13.1,0,0-5.7-4.4-11-4,0,0-9.3,1.3-11.8,9.1,0,0-10.5-6.5-11.8,6.3,0,0,3.8-1.3,4.8.8" transform="translate(20.01 80.64)" style="fill:#fff"/><path d="M52.6,197.4s-15.2,4.2-1.5,15.4c0,0,8.8,1.5,12.4-6.5,0,0,2.5-8-2.9-13.1,0,0-5.7-4.4-11-4,0,0-9.3,1.3-11.8,9.1,0,0-10.5-6.5-11.8,6.3,0,0,3.8-1.3,4.8.8" transform="translate(20.01 80.64)" style="fill:none;stroke:#010101;stroke-miterlimit:10;stroke-width:2px"/><path d="M31.7,204.7s-8.8-.1-10.8,5.3" transform="translate(20.01 80.64)" style="fill:#fff"/><path d="M31.7,204.7s-8.8-.1-10.8,5.3" transform="translate(20.01 80.64)" style="fill:none;stroke:#010101;stroke-miterlimit:10;stroke-width:2px"/><path d="M24.4,222.6" transform="translate(20.01 80.64)" style="fill:#fff"/><path d="M24.4,222.6" transform="translate(20.01 80.64)" style="fill:none;stroke:#010101;stroke-miterlimit:10;stroke-width:2px"/><path d="M14.4,220.3" transform="translate(20.01 80.64)" style="fill:#fff"/><path d="M14.4,220.3" transform="translate(20.01 80.64)" style="fill:none;stroke:#010101;stroke-miterlimit:10;stroke-width:2px"/><path d="M77.1,210.4a6.52,6.52,0,0,1,4.7-.8s4.6,1,4.7,3.7a15.88,15.88,0,0,1,8.2.5s5.5,3,6.3,5.5a15.1,15.1,0,0,1-3.9-1s-5.5-1.7-8.2,1.6c0,0-2.6,3-4.9,3.8,0,0-5.2,6.5-10.3,2.3,0,0-6.7,4-10.8-2.4a8,8,0,0,1-2.6-1.8s-7.6,11.5-17,1" transform="translate(20.01 80.64)" style="fill:#fff"/><path d="M77.1,210.4a6.52,6.52,0,0,1,4.7-.8s4.6,1,4.7,3.7a15.88,15.88,0,0,1,8.2.5s5.5,3,6.3,5.5a15.1,15.1,0,0,1-3.9-1s-5.5-1.7-8.2,1.6c0,0-2.6,3-4.9,3.8,0,0-5.2,6.5-10.3,2.3,0,0-6.7,4-10.8-2.4a8,8,0,0,1-2.6-1.8s-7.6,11.5-17,1" transform="translate(20.01 80.64)" style="fill:none;stroke:#010101;stroke-miterlimit:10;stroke-width:2px"/><path d="M29.2,218.2" transform="translate(20.01 80.64)" style="fill:#fff"/><path d="M29.2,218.2" transform="translate(20.01 80.64)" style="fill:none;stroke:#010101;stroke-miterlimit:10;stroke-width:2px"/><path d="M64.9,205.8s2.6-1.4,6.8.3c0,0,3.8,2,4,3.4,0,0,2.3,3.1,1.1,4.7a8,8,0,0,1-2.1,5.4,7.39,7.39,0,0,1-7,1.5s-4.1-1.6-3.7-5.9a4.3,4.3,0,0,1,4.6-4.8s3.1-.5,4.2,3.6" transform="translate(20.01 80.64)" style="fill:#fff"/><path d="M64.9,205.8s2.6-1.4,6.8.3c0,0,3.8,2,4,3.4,0,0,2.3,3.1,1.1,4.7a8,8,0,0,1-2.1,5.4,7.39,7.39,0,0,1-7,1.5s-4.1-1.6-3.7-5.9a4.3,4.3,0,0,1,4.6-4.8s3.1-.5,4.2,3.6" transform="translate(20.01 80.64)" style="fill:none;stroke:#010101;stroke-miterlimit:10;stroke-width:2px"/><path d="M41.9,216.2s.2,2.8-1.5,2.9c0,0-4,2.2-5.5-2.3a6.8,6.8,0,0,1,.7-4.4s.7-1.6,4.7-1.8a5.5,5.5,0,0,1,4.8,3s1.6,1.8.3,5.5c0,0-1.3,3.3-2.9,4.4,0,0-5.2,2.4-8.7,2,0,0-2.9-.7-2.6-1.8,0,0-2.8,1-3.9-.2,0,0-3.8-1.4-5.3-4.6,0,0-1.3-1.1-.7-6.5,0,0,0-2.6,4.7-6a16.25,16.25,0,0,1,4.9-1.4" transform="translate(20.01 80.64)" style="fill:#fff"/><path d="M41.9,216.2s.2,2.8-1.5,2.9c0,0-4,2.2-5.5-2.3a6.8,6.8,0,0,1,.7-4.4s.7-1.6,4.7-1.8a5.5,5.5,0,0,1,4.8,3s1.6,1.8.3,5.5c0,0-1.3,3.3-2.9,4.4,0,0-5.2,2.4-8.7,2,0,0-2.9-.7-2.6-1.8,0,0-2.8,1-3.9-.2,0,0-3.8-1.4-5.3-4.6,0,0-1.3-1.1-.7-6.5,0,0,0-2.6,4.7-6a16.25,16.25,0,0,1,4.9-1.4" transform="translate(20.01 80.64)" style="fill:none;stroke:#010101;stroke-miterlimit:10;stroke-width:2px"/></g><path d="M64.8,248.4c-7.1,10.1-26.9,15-44.3,10.9C6.6,256-.1,246.8,5.6,238.7c4.5-6.5,17.2-9.6,28.4-7,8.9,2.1,13.2,8,9.6,13.2-2.9,4.1-11,6.1-18.2,4.4-5.7-1.3-8.4-5.1-6.1-8.4,1.9-2.7,7.1-3.9,11.6-2.8,3.6.9,5.4,3.3,3.9,5.4-1.2,1.7-4.5,2.5-7.4,1.8-2.3-.6-3.5-2.1-2.5-3.5" transform="translate(20.01 80.64)" style="fill:none;stroke:#020202;stroke-miterlimit:3;stroke-width:3px"/><ellipse id="SRING" cx="126.68" cy="60.41" rx="31.7" ry="5" transform="translate(31.03 220.55) rotate(-60)" style="fill:none;stroke:#020202;stroke-miterlimit:2.9999339906020324;stroke-width:2.9999339906020324px"/><ellipse id="SRING-2" data-name="SRING" cx="116.7" cy="52.68" rx="39.9" ry="6.2" transform="translate(32.74 208.04) rotate(-60)" style="fill:none;stroke:#020202;stroke-miterlimit:2.9999339906020324;stroke-width:2.9999339906020324px"/><path d="M464.3,271.3" transform="translate(20.01 80.64)" style="fill:none;stroke:#020202;stroke-miterlimit:3;stroke-width:2px"/><path d="M331.5,173.9a33.25,33.25,0,0,0,9.4-.8c8.3-2,12.3-7.5,8.9-12.3-2.7-3.9-10.3-5.7-16.9-4.2-5.3,1.3-7.9,4.8-5.7,7.9,1.7,2.5,6.6,3.7,10.8,2.7,3.4-.8,5-3.1,3.7-5-1.1-1.6-4.2-2.3-6.9-1.7-2.2.5-3.2,2-2.3,3.2.7,1,2.7,1.5,4.4,1.1,1.4-.3,2.1-1.3,1.5-2.1" transform="translate(20.01 80.64)" style="fill:none;stroke:#020202;stroke-miterlimit:3;stroke-width:2px"/><path d="M-64.7,195" transform="translate(20.01 80.64)" style="fill:none;stroke:#020202;stroke-miterlimit:10;stroke-width:3px"/><path d="M266.5,180.1" transform="translate(20.01 80.64)" style="fill:none;stroke:#020202;stroke-miterlimit:10;stroke-width:3px"/><path d="M266.6,182.2a13.3,13.3,0,0,1,26.6,0" transform="translate(20.01 80.64)" style="fill:#fff;stroke:#020202;stroke-miterlimit:10;stroke-width:3px"/><path d="M288.6,182.2a5.91,5.91,0,0,1,5.9-5.9,6,6,0,0,1,5.9,5.9" transform="translate(20.01 80.64)" style="fill:#fff;stroke:#020202;stroke-miterlimit:10;stroke-width:3px"/><path d="M274.6,172.1l.9.9s-2.7,2.4-2.7,3.4C273,177.2,272.4,174.4,274.6,172.1Z" transform="translate(20.01 80.64)" style="fill:none;stroke:#020202;stroke-miterlimit:3;stroke-width:0.5px"/><path d="M275.3,174.1l.6.6s-1.6,1.3-1.5,1.9A3.19,3.19,0,0,1,275.3,174.1Z" transform="translate(20.01 80.64)" style="fill:none;stroke:#020202;stroke-miterlimit:3;stroke-width:0.5px"/><path d="M442.6,156.4" transform="translate(20.01 80.64)" style="fill:none;stroke:#020202;stroke-miterlimit:10;stroke-width:3px"/><g id="LAVA_FLOW" data-name="LAVA FLOW"><path d="M323.84,118.27s-1.5,18-9.77,22.54" transform="translate(20.01 80.64)" style="fill:#fff;stroke:#000;stroke-miterlimit:10;stroke-width:3px"/><path d="M328.87,122s.51,8.47-3,11.11" transform="translate(20.01 80.64)" style="fill:#fff;stroke:#000;stroke-miterlimit:10;stroke-width:3px"/><path d="M335.25,110.51s4.07,23.15-1.74,29.62" transform="translate(20.01 80.64)" style="fill:none;stroke:#020202;stroke-miterlimit:3;stroke-width:3px"/></g></svg>